RedHatMonoVF-Light.ufo
<glyph name="exclam" format="2">
  <advance width="600"/>
  <unicode hex="0021"/>
  <outline>
    <contour>
      <point x="279" y="208" type="line"/>
      <point x="321" y="208" type="line"/>
      <point x="327" y="727" type="line"/>
      <point x="273" y="727" type="line"/>
    </contour>
    <contour>
      <point x="300" y="-8" type="curve" smooth="yes"/>
      <point x="329" y="-8"/>
      <point x="353" y="16"/>
      <point x="353" y="46" type="curve" smooth="yes"/>
      <point x="353" y="76"/>
      <point x="329" y="100"/>
      <point x="300" y="100" type="curve" smooth="yes"/>
      <point x="271" y="100"/>
      <point x="247" y="76"/>
      <point x="247" y="46" type="curve" smooth="yes"/>
      <point x="247" y="16"/>
      <point x="271" y="-8"/>
    </contour>
  </outline>
</glyph>
<glyph name="dollar" format="2">
  <advance width="600"/>
  <unicode hex="0024"/>
  <outline>
    <contour>
      <point x="281" y="-67" type="line"/>
      <point x="325" y="-67" type="line"/>
      <point x="325" y="24" type="line"/>
      <point x="440" y="32"/>
      <point x="521" y="103"/>
      <point x="521" y="195" type="curve" smooth="yes"/>
      <point x="521" y="285"/>
      <point x="468" y="336"/>
      <point x="325" y="377" type="curve"/>
      <point x="325" y="631" type="line"/>
      <point x="379" y="623"/>
      <point x="432" y="597"/>
      <point x="478" y="558" type="curve"/>
      <point x="504" y="595" type="line"/>
      <point x="449" y="639"/>
      <point x="388" y="667"/>
      <point x="325" y="675" type="curve"/>
      <point x="325" y="767" type="line"/>
      <point x="281" y="767" type="line"/>
      <point x="281" y="677" type="line"/>
      <point x="165" y="673"/>
      <point x="88" y="605"/>
      <point x="88" y="514" type="curve" smooth="yes"/>
      <point x="88" y="427"/>
      <point x="144" y="376"/>
      <point x="281" y="337" type="curve"/>
      <point x="281" y="67" type="line"/>
      <point x="217" y="72"/>
      <point x="155" y="98"/>
      <point x="104" y="139" type="curve"/>
      <point x="79" y="101" type="line"/>
      <point x="134" y="55"/>
      <point x="208" y="28"/>
      <point x="281" y="24" type="curve"/>
    </contour>
    <contour>
      <point x="136" y="517" type="curve" smooth="yes"/>
      <point x="136" y="582"/>
      <point x="193" y="631"/>
      <point x="281" y="634" type="curve"/>
      <point x="281" y="386" type="line"/>
      <point x="175" y="416"/>
      <point x="136" y="453"/>
    </contour>
    <contour>
      <point x="473" y="191" type="curve" smooth="yes"/>
      <point x="473" y="124"/>
      <point x="414" y="73"/>
      <point x="325" y="67" type="curve"/>
      <point x="325" y="328" type="line"/>
      <point x="433" y="299"/>
      <point x="473" y="261"/>
    </contour>
  </outline>
</glyph>
<glyph name="ampersand" format="2">
  <advance width="600"/>
  <unicode hex="0026"/>
  <outline>
    <contour>
      <point x="240" y="-11" type="curve" smooth="yes"/>
      <point x="314" y="-11"/>
      <point x="381" y="27"/>
      <point x="433" y="93" type="curve"/>
      <point x="472" y="57"/>
      <point x="512" y="22"/>
      <point x="553" y="-11" type="curve"/>
      <point x="583" y="27" type="line"/>
      <point x="542" y="61"/>
      <point x="500" y="97"/>
      <point x="461" y="133" type="curve"/>
      <point x="493" y="187"/>
      <point x="518" y="254"/>
      <point x="532" y="331" type="curve"/>
      <point x="482" y="339" type="line"/>
      <point x="471" y="273"/>
      <point x="450" y="215"/>
      <point x="424" y="167" type="curve"/>
      <point x="354" y="234"/>
      <point x="290" y="301"/>
      <point x="237" y="364" type="curve"/>
      <point x="365" y="449"/>
      <point x="402" y="495"/>
      <point x="402" y="571" type="curve" smooth="yes"/>
      <point x="402" y="655"/>
      <point x="342" y="711"/>
      <point x="258" y="711" type="curve" smooth="yes"/>
      <point x="171" y="711"/>
      <point x="104" y="638"/>
      <point x="104" y="548" type="curve" smooth="yes"/>
      <point x="104" y="493"/>
      <point x="128" y="431"/>
      <point x="169" y="373" type="curve"/>
      <point x="83" y="315"/>
      <point x="46" y="257"/>
      <point x="46" y="181" type="curve" smooth="yes"/>
      <point x="46" y="65"/>
      <point x="123" y="-11"/>
    </contour>
    <contour>
      <point x="154" y="548" type="curve" smooth="yes"/>
      <point x="154" y="618"/>
      <point x="199" y="666"/>
      <point x="257" y="666" type="curve" smooth="yes"/>
      <point x="309" y="666"/>
      <point x="352" y="624"/>
      <point x="352" y="569" type="curve" smooth="yes"/>
      <point x="352" y="509"/>
      <point x="318" y="469"/>
      <point x="209" y="400" type="curve"/>
      <point x="174" y="448"/>
      <point x="154" y="502"/>
    </contour>
    <contour>
      <point x="98" y="181" type="curve" smooth="yes"/>
      <point x="98" y="241"/>
      <point x="128" y="288"/>
      <point x="197" y="337" type="curve"/>
      <point x="253" y="269"/>
      <point x="322" y="197"/>
      <point x="397" y="126" type="curve"/>
      <point x="354" y="69"/>
      <point x="299" y="35"/>
      <point x="241" y="35" type="curve" smooth="yes"/>
      <point x="156" y="35"/>
      <point x="98" y="93"/>
    </contour>
  </outline>
</glyph>
<glyph name="quotesingle" format="2">
  <advance width="600"/>
  <unicode hex="0027"/>
  <outline>
    <contour>
      <point x="282" y="554" type="line"/>
      <point x="318" y="554" type="line"/>
      <point x="327" y="750" type="line"/>
      <point x="273" y="750" type="line"/>
    </contour>
  </outline>
</glyph>
<glyph name="hyphen" format="2">
  <advance width="600"/>
  <unicode hex="002D"/>
  <outline>
    <contour>
      <point x="138" y="258" type="line"/>
      <point x="462" y="258" type="line"/>
      <point x="462" y="302" type="line"/>
      <point x="138" y="302" type="line"/>
    </contour>
  </outline>
</glyph>
<glyph name="slash" format="2">
  <advance width="600"/>
  <unicode hex="002F"/>
  <outline>
    <contour>
      <point x="53" y="-209" type="line"/>
      <point x="105" y="-209" type="line"/>
      <point x="503" y="700" type="line"/>
      <point x="451" y="700" type="line"/>
    </contour>
  </outline>
</glyph>
<glyph name="zero" format="2">
  <advance width="600"/>
  <unicode hex="0030"/>
  <outline>
    <contour>
      <point x="300" y="-11" type="curve" smooth="yes"/>
      <point x="449" y="-11"/>
      <point x="554" y="128"/>
      <point x="554" y="350" type="curve" smooth="yes"/>
      <point x="554" y="572"/>
      <point x="449" y="711"/>
      <point x="300" y="711" type="curve" smooth="yes"/>
      <point x="151" y="711"/>
      <point x="46" y="572"/>
      <point x="46" y="350" type="curve" smooth="yes"/>
      <point x="46" y="128"/>
      <point x="151" y="-11"/>
    </contour>
    <contour>
      <point x="98" y="350" type="curve" smooth="yes"/>
      <point x="98" y="542"/>
      <point x="178" y="665"/>
      <point x="300" y="665" type="curve" smooth="yes"/>
      <point x="344" y="665"/>
      <point x="382" y="649"/>
      <point x="414" y="620" type="curve"/>
      <point x="156" y="116" type="line"/>
      <point x="119" y="171"/>
      <point x="98" y="251"/>
    </contour>
    <contour>
      <point x="300" y="35" type="curve" smooth="yes"/>
      <point x="256" y="35"/>
      <point x="217" y="51"/>
      <point x="186" y="81" type="curve"/>
      <point x="444" y="584" type="line"/>
      <point x="481" y="529"/>
      <point x="502" y="449"/>
      <point x="502" y="350" type="curve" smooth="yes"/>
      <point x="502" y="158"/>
      <point x="422" y="35"/>
    </contour>
  </outline>
</glyph>
<glyph name="two" format="2">
  <advance width="600"/>
  <unicode hex="0032"/>
  <outline>
    <contour>
      <point x="81" y="0" type="line"/>
      <point x="518" y="0" type="line"/>
      <point x="518" y="45" type="line"/>
      <point x="148" y="45" type="line"/>
      <point x="390" y="320" type="line" smooth="yes"/>
      <point x="482" y="424"/>
      <point x="502" y="462"/>
      <point x="502" y="533" type="curve" smooth="yes"/>
      <point x="502" y="635"/>
      <point x="413" y="711"/>
      <point x="293" y="711" type="curve" smooth="yes"/>
      <point x="215" y="711"/>
      <point x="146" y="679"/>
      <point x="75" y="614" type="curve"/>
      <point x="105" y="578" type="line"/>
      <point x="177" y="642"/>
      <point x="226" y="666"/>
      <point x="293" y="666" type="curve" smooth="yes"/>
      <point x="385" y="666"/>
      <point x="450" y="609"/>
      <point x="450" y="530" type="curve" smooth="yes"/>
      <point x="450" y="474"/>
      <point x="428" y="434"/>
      <point x="352" y="347" type="curve" smooth="yes"/>
      <point x="81" y="39" type="line"/>
    </contour>
  </outline>
</glyph>
<glyph name="three" format="2">
  <advance width="600"/>
  <unicode hex="0033"/>
  <outline>
    <contour>
      <point x="285" y="-11" type="curve" smooth="yes"/>
      <point x="421" y="-11"/>
      <point x="521" y="74"/>
      <point x="521" y="190" type="curve" smooth="yes"/>
      <point x="521" y="271"/>
      <point x="460" y="340"/>
      <point x="370" y="363" type="curve"/>
      <point x="445" y="390"/>
      <point x="493" y="450"/>
      <point x="493" y="522" type="curve" smooth="yes"/>
      <point x="493" y="629"/>
      <point x="401" y="711"/>
      <point x="279" y="711" type="curve" smooth="yes"/>
      <point x="194" y="711"/>
      <point x="120" y="678"/>
      <point x="58" y="615" type="curve"/>
      <point x="90" y="580" type="line"/>
      <point x="151" y="642"/>
      <point x="206" y="666"/>
      <point x="279" y="666" type="curve" smooth="yes"/>
      <point x="371" y="666"/>
      <point x="441" y="602"/>
      <point x="441" y="522" type="curve" smooth="yes"/>
      <point x="441" y="440"/>
      <point x="385" y="383"/>
      <point x="305" y="383" type="curve" smooth="yes"/>
      <point x="223" y="383" type="line"/>
      <point x="223" y="338" type="line"/>
      <point x="304" y="338" type="line" smooth="yes"/>
      <point x="400" y="338"/>
      <point x="469" y="274"/>
      <point x="469" y="190" type="curve" smooth="yes"/>
      <point x="469" y="98"/>
      <point x="391" y="34"/>
      <point x="284" y="34" type="curve" smooth="yes"/>
      <point x="205" y="34"/>
      <point x="142" y="60"/>
      <point x="81" y="119" type="curve"/>
      <point x="48" y="85" type="line"/>
      <point x="113" y="22"/>
      <point x="193" y="-11"/>
    </contour>
  </outline>
</glyph>
<glyph name="four" format="2">
  <advance width="600"/>
  <unicode hex="0034"/>
  <outline>
    <contour>
      <point x="419" y="0" type="line"/>
      <point x="469" y="0" type="line"/>
      <point x="469" y="195" type="line"/>
      <point x="571" y="195" type="line"/>
      <point x="571" y="240" type="line"/>
      <point x="469" y="240" type="line"/>
      <point x="469" y="700" type="line"/>
      <point x="417" y="700" type="line"/>
      <point x="34" y="234" type="line"/>
      <point x="34" y="195" type="line"/>
      <point x="419" y="195" type="line"/>
    </contour>
    <contour>
      <point x="98" y="240" type="line"/>
      <point x="419" y="631" type="line"/>
      <point x="419" y="240" type="line"/>
    </contour>
  </outline>
</glyph>
<glyph name="five" format="2">
  <advance width="600"/>
  <unicode hex="0035"/>
  <outline>
    <contour>
      <point x="290" y="-11" type="curve" smooth="yes"/>
      <point x="430" y="-11"/>
      <point x="524" y="82"/>
      <point x="524" y="220" type="curve" smooth="yes"/>
      <point x="524" y="345"/>
      <point x="433" y="431"/>
      <point x="297" y="431" type="curve" smooth="yes"/>
      <point x="241" y="431"/>
      <point x="195" y="421"/>
      <point x="139" y="394" type="curve"/>
      <point x="151" y="655" type="line"/>
      <point x="487" y="655" type="line"/>
      <point x="487" y="700" type="line"/>
      <point x="105" y="700" type="line"/>
      <point x="89" y="357" type="line"/>
      <point x="124" y="345" type="line"/>
      <point x="183" y="375"/>
      <point x="235" y="387"/>
      <point x="291" y="387" type="curve" smooth="yes"/>
      <point x="399" y="387"/>
      <point x="472" y="319"/>
      <point x="472" y="218" type="curve" smooth="yes"/>
      <point x="472" y="108"/>
      <point x="397" y="34"/>
      <point x="290" y="34" type="curve" smooth="yes"/>
      <point x="210" y="34"/>
      <point x="151" y="59"/>
      <point x="90" y="119" type="curve"/>
      <point x="57" y="86" type="line"/>
      <point x="122" y="22"/>
      <point x="200" y="-11"/>
    </contour>
  </outline>
</glyph>
<glyph name="seven" format="2">
  <advance width="600"/>
  <unicode hex="0037"/>
  <outline>
    <contour>
      <point x="127" y="0" type="line"/>
      <point x="182" y="0" type="line"/>
      <point x="543" y="661" type="line"/>
      <point x="543" y="700" type="line"/>
      <point x="56" y="700" type="line"/>
      <point x="56" y="655" type="line"/>
      <point x="485" y="655" type="line"/>
    </contour>
  </outline>
</glyph>
<glyph name="eight" format="2">
  <advance width="600"/>
  <unicode hex="0038"/>
  <outline>
    <contour>
      <point x="301" y="-11" type="curve" smooth="yes"/>
      <point x="441" y="-11"/>
      <point x="543" y="72"/>
      <point x="543" y="187" type="curve" smooth="yes"/>
      <point x="543" y="277"/>
      <point x="475" y="350"/>
      <point x="373" y="374" type="curve"/>
      <point x="458" y="396"/>
      <point x="515" y="459"/>
      <point x="515" y="535" type="curve" smooth="yes"/>
      <point x="515" y="635"/>
      <point x="423" y="711"/>
      <point x="300" y="711" type="curve"/>
      <point x="178" y="711"/>
      <point x="86" y="635"/>
      <point x="86" y="535" type="curve" smooth="yes"/>
      <point x="86" y="459"/>
      <point x="143" y="396"/>
      <point x="229" y="374" type="curve"/>
      <point x="128" y="350"/>
      <point x="57" y="274"/>
      <point x="57" y="187" type="curve" smooth="yes"/>
      <point x="57" y="72"/>
      <point x="161" y="-11"/>
    </contour>
    <contour>
      <point x="300" y="397" type="curve"/>
      <point x="206" y="397"/>
      <point x="134" y="456"/>
      <point x="134" y="532" type="curve"/>
      <point x="134" y="608"/>
      <point x="206" y="667"/>
      <point x="300" y="667" type="curve"/>
      <point x="395" y="667"/>
      <point x="467" y="608"/>
      <point x="467" y="532" type="curve"/>
      <point x="467" y="456"/>
      <point x="395" y="397"/>
    </contour>
    <contour>
      <point x="300" y="34" type="curve" smooth="yes"/>
      <point x="191" y="34"/>
      <point x="106" y="102"/>
      <point x="106" y="191" type="curve" smooth="yes"/>
      <point x="106" y="280"/>
      <point x="191" y="348"/>
      <point x="300" y="348" type="curve" smooth="yes"/>
      <point x="409" y="348"/>
      <point x="494" y="280"/>
      <point x="494" y="191" type="curve" smooth="yes"/>
      <point x="494" y="102"/>
      <point x="409" y="34"/>
    </contour>
  </outline>
</glyph>
<glyph name="less" format="2">
  <advance width="600"/>
  <unicode hex="003C"/>
  <outline>
    <contour>
      <point x="424" y="119" type="line"/>
      <point x="450" y="155" type="line"/>
      <point x="187" y="350" type="line"/>
      <point x="450" y="544" type="line"/>
      <point x="425" y="579" type="line"/>
      <point x="118" y="349" type="line"/>
    </contour>
  </outline>
</glyph>
<glyph name="question" format="2">
  <advance width="600"/>
  <unicode hex="003F"/>
  <guideline x="272" y="208" angle="90.0" identifier="cpUaL7h2b2"/>
  <outline>
    <contour>
      <point x="249" y="208" type="curve"/>
      <point x="295" y="208" type="line"/>
      <point x="271" y="377"/>
      <point x="500" y="360"/>
      <point x="500" y="539" type="curve" smooth="yes"/>
      <point x="500" y="638"/>
      <point x="414" y="711"/>
      <point x="303" y="711" type="curve" smooth="yes"/>
      <point x="223" y="711"/>
      <point x="152" y="674"/>
      <point x="92" y="603" type="curve"/>
      <point x="130" y="568" type="line"/>
      <point x="181" y="631"/>
      <point x="236" y="663"/>
      <point x="301" y="663" type="curve" smooth="yes"/>
      <point x="384" y="663"/>
      <point x="450" y="609"/>
      <point x="450" y="539" type="curve" smooth="yes"/>
      <point x="450" y="381"/>
      <point x="235" y="416"/>
    </contour>
    <contour>
      <point x="272" y="-8" type="curve" smooth="yes"/>
      <point x="301" y="-8"/>
      <point x="325" y="16"/>
      <point x="325" y="46" type="curve" smooth="yes"/>
      <point x="325" y="76"/>
      <point x="301" y="100"/>
      <point x="272" y="100" type="curve" smooth="yes"/>
      <point x="243" y="100"/>
      <point x="219" y="76"/>
      <point x="219" y="46" type="curve" smooth="yes"/>
      <point x="219" y="16"/>
      <point x="243" y="-8"/>
    </contour>
  </outline>
</glyph>
<glyph name="at" format="2">
  <advance width="600"/>
  <unicode hex="0040"/>
  <outline>
    <contour>
      <point x="279" y="53" type="curve" smooth="yes"/>
      <point x="313" y="53"/>
      <point x="348" y="68"/>
      <point x="379" y="94" type="curve"/>
      <point x="393" y="71"/>
      <point x="419" y="57"/>
      <point x="455" y="57" type="curve" smooth="yes"/>
      <point x="537" y="57"/>
      <point x="588" y="136"/>
      <point x="588" y="265" type="curve" smooth="yes"/>
      <point x="588" y="448"/>
      <point x="475" y="574"/>
      <point x="310" y="574" type="curve" smooth="yes"/>
      <point x="137" y="574"/>
      <point x="12" y="420"/>
      <point x="12" y="207" type="curve" smooth="yes"/>
      <point x="12" y="3"/>
      <point x="139" y="-144"/>
      <point x="316" y="-144" type="curve" smooth="yes"/>
      <point x="383" y="-144"/>
      <point x="439" y="-128"/>
      <point x="492" y="-92" type="curve"/>
      <point x="469" y="-57" type="line"/>
      <point x="429" y="-88"/>
      <point x="378" y="-104"/>
      <point x="316" y="-104" type="curve" smooth="yes"/>
      <point x="166" y="-104"/>
      <point x="54" y="27"/>
      <point x="54" y="207" type="curve" smooth="yes"/>
      <point x="54" y="395"/>
      <point x="162" y="534"/>
      <point x="308" y="534" type="curve" smooth="yes"/>
      <point x="450" y="534"/>
      <point x="546" y="425"/>
      <point x="546" y="265" type="curve" smooth="yes"/>
      <point x="546" y="163"/>
      <point x="511" y="97"/>
      <point x="457" y="97" type="curve" smooth="yes"/>
      <point x="420" y="97"/>
      <point x="405" y="123"/>
      <point x="412" y="170" type="curve" smooth="yes"/>
      <point x="440" y="365" type="line"/>
      <point x="395" y="365" type="line"/>
      <point x="392" y="341" type="line"/>
      <point x="370" y="364"/>
      <point x="337" y="378"/>
      <point x="304" y="378" type="curve" smooth="yes"/>
      <point x="220" y="378"/>
      <point x="152" y="307"/>
      <point x="152" y="203" type="curve" smooth="yes"/>
      <point x="152" y="111"/>
      <point x="207" y="53"/>
    </contour>
    <contour>
      <point x="290" y="91" type="curve" smooth="yes"/>
      <point x="234" y="91"/>
      <point x="196" y="138"/>
      <point x="196" y="205" type="curve" smooth="yes"/>
      <point x="196" y="282"/>
      <point x="243" y="339"/>
      <point x="305" y="339" type="curve" smooth="yes"/>
      <point x="338" y="339"/>
      <point x="371" y="322"/>
      <point x="385" y="295" type="curve"/>
      <point x="368" y="170" type="line" smooth="yes"/>
      <point x="366" y="155"/>
      <point x="366" y="141"/>
      <point x="367" y="128" type="curve"/>
      <point x="348" y="105"/>
      <point x="319" y="91"/>
    </contour>
  </outline>
</glyph>
<glyph name="A" format="2">
  <advance width="600"/>
  <unicode hex="0041"/>
  <anchor x="300" y="700" name="top"/>
  <anchor x="580" y="0" name="bottom"/>
  <outline>
    <contour>
      <point x="20" y="0" type="line"/>
      <point x="73" y="0" type="line"/>
      <point x="145" y="210" type="line"/>
      <point x="454" y="210" type="line"/>
      <point x="526" y="0" type="line"/>
      <point x="580" y="0" type="line"/>
      <point x="336" y="700" type="line"/>
      <point x="264" y="700" type="line"/>
    </contour>
    <contour>
      <point x="159" y="252" type="line"/>
      <point x="299" y="662" type="line"/>
      <point x="440" y="252" type="line"/>
    </contour>
  </outline>
</glyph>
<glyph name="D" format="2">
  <advance width="600"/>
  <unicode hex="0044"/>
  <guideline x="196" y="700" angle="0.0" color="0.999,0.001,0.001,0.999" identifier="wmVgIwSYWN"/>
  <anchor x="297" y="700" name="top"/>
  <outline>
    <contour>
      <point x="148" y="47" type="line"/>
      <point x="148" y="653" type="line"/>
      <point x="272" y="653" type="line" smooth="yes"/>
      <point x="409" y="653"/>
      <point x="501" y="532"/>
      <point x="501" y="350" type="curve" smooth="yes"/>
      <point x="501" y="168"/>
      <point x="409" y="47"/>
      <point x="272" y="47" type="curve" smooth="yes"/>
    </contour>
    <contour>
      <point x="96" y="0" type="line"/>
      <point x="282" y="0" type="line" smooth="yes"/>
      <point x="442" y="0"/>
      <point x="553" y="143"/>
      <point x="553" y="350" type="curve" smooth="yes"/>
      <point x="553" y="557"/>
      <point x="442" y="700"/>
      <point x="282" y="700" type="curve" smooth="yes"/>
      <point x="96" y="700" type="line"/>
    </contour>
  </outline>
</glyph>
<glyph name="E" format="2">
  <advance width="600"/>
  <unicode hex="0045"/>
  <anchor x="316" y="700" name="top"/>
  <anchor x="533" y="0" name="bottom"/>
  <outline>
    <contour>
      <point x="103" y="0" type="line"/>
      <point x="533" y="0" type="line"/>
      <point x="533" y="47" type="line"/>
      <point x="155" y="47" type="line"/>
      <point x="155" y="330" type="line"/>
      <point x="404" y="330" type="line"/>
      <point x="404" y="377" type="line"/>
      <point x="155" y="377" type="line"/>
      <point x="155" y="653" type="line"/>
      <point x="529" y="653" type="line"/>
      <point x="529" y="700" type="line"/>
      <point x="103" y="700" type="line"/>
    </contour>
  </outline>
</glyph>
<glyph name="F" format="2">
  <advance width="600"/>
  <unicode hex="0046"/>
  <outline>
    <contour>
      <point x="108" y="0" type="line"/>
      <point x="160" y="0" type="line"/>
      <point x="160" y="325" type="line"/>
      <point x="420" y="325" type="line"/>
      <point x="420" y="372" type="line"/>
      <point x="160" y="372" type="line"/>
      <point x="160" y="653" type="line"/>
      <point x="540" y="653" type="line"/>
      <point x="540" y="700" type="line"/>
      <point x="108" y="700" type="line"/>
    </contour>
  </outline>
</glyph>
<glyph name="I" format="2">
  <advance width="600"/>
  <unicode hex="0049"/>
  <anchor x="300" y="700" name="top"/>
  <anchor x="510" y="0" name="bottom"/>
  <outline>
    <contour>
      <point x="90" y="0" type="line"/>
      <point x="510" y="0" type="line"/>
      <point x="510" y="47" type="line"/>
      <point x="326" y="47" type="line"/>
      <point x="326" y="653" type="line"/>
      <point x="510" y="653" type="line"/>
      <point x="510" y="700" type="line"/>
      <point x="90" y="700" type="line"/>
      <point x="90" y="653" type="line"/>
      <point x="274" y="653" type="line"/>
      <point x="274" y="47" type="line"/>
      <point x="90" y="47" type="line"/>
    </contour>
  </outline>
</glyph>
<glyph name="K" format="2">
  <advance width="600"/>
  <unicode hex="004B"/>
  <anchor x="325" y="0" name="bottom"/>
  <outline>
    <contour>
      <point x="115" y="0" type="line"/>
      <point x="167" y="0" type="line"/>
      <point x="167" y="339" type="line"/>
      <point x="500" y="0" type="line"/>
      <point x="576" y="0" type="line"/>
      <point x="224" y="353" type="line"/>
      <point x="571" y="700" type="line"/>
      <point x="500" y="700" type="line"/>
      <point x="167" y="361" type="line"/>
      <point x="167" y="700" type="line"/>
      <point x="115" y="700" type="line"/>
    </contour>
  </outline>
</glyph>
<glyph name="O" format="2">
  <advance width="600"/>
  <unicode hex="004F"/>
  <anchor x="300" y="700" name="top"/>
  <outline>
    <contour>
      <point x="300" y="-11" type="curve" smooth="yes"/>
      <point x="438" y="-11"/>
      <point x="558" y="118"/>
      <point x="558" y="350" type="curve" smooth="yes"/>
      <point x="558" y="582"/>
      <point x="438" y="711"/>
      <point x="300" y="711" type="curve" smooth="yes"/>
      <point x="162" y="711"/>
      <point x="42" y="582"/>
      <point x="42" y="350" type="curve" smooth="yes"/>
      <point x="42" y="118"/>
      <point x="162" y="-11"/>
    </contour>
    <contour>
      <point x="300" y="37" type="curve" smooth="yes"/>
      <point x="182" y="37"/>
      <point x="94" y="155"/>
      <point x="94" y="350" type="curve" smooth="yes"/>
      <point x="94" y="545"/>
      <point x="182" y="663"/>
      <point x="300" y="663" type="curve" smooth="yes"/>
      <point x="418" y="663"/>
      <point x="506" y="545"/>
      <point x="506" y="350" type="curve" smooth="yes"/>
      <point x="506" y="155"/>
      <point x="418" y="37"/>
    </contour>
  </outline>
</glyph>
<glyph name="P" format="2">
  <advance width="600"/>
  <unicode hex="0050"/>
  <outline>
    <contour>
      <point x="105" y="0" type="line"/>
      <point x="157" y="0" type="line"/>
      <point x="157" y="298" type="line"/>
      <point x="324" y="298" type="line" smooth="yes"/>
      <point x="457" y="298"/>
      <point x="541" y="376"/>
      <point x="541" y="499" type="curve" smooth="yes"/>
      <point x="541" y="622"/>
      <point x="457" y="700"/>
      <point x="324" y="700" type="curve" smooth="yes"/>
      <point x="105" y="700" type="line"/>
    </contour>
    <contour>
      <point x="157" y="345" type="line"/>
      <point x="157" y="653" type="line"/>
      <point x="321" y="653" type="line" smooth="yes"/>
      <point x="426" y="653"/>
      <point x="489" y="596"/>
      <point x="489" y="499" type="curve" smooth="yes"/>
      <point x="489" y="402"/>
      <point x="426" y="345"/>
      <point x="321" y="345" type="curve" smooth="yes"/>
    </contour>
  </outline>
</glyph>
<glyph name="Q" format="2">
  <advance width="600"/>
  <unicode hex="0051"/>
  <outline>
    <contour>
      <point x="481" y="-8" type="line"/>
      <point x="538" y="0" type="line"/>
      <point x="474" y="74" type="line"/>
      <point x="525" y="135"/>
      <point x="558" y="229"/>
      <point x="558" y="350" type="curve" smooth="yes"/>
      <point x="558" y="582"/>
      <point x="438" y="711"/>
      <point x="300" y="711" type="curve" smooth="yes"/>
      <point x="162" y="711"/>
      <point x="42" y="582"/>
      <point x="42" y="350" type="curve" smooth="yes"/>
      <point x="42" y="118"/>
      <point x="162" y="-11"/>
      <point x="300" y="-11" type="curve" smooth="yes"/>
      <point x="351" y="-11"/>
      <point x="399" y="6"/>
      <point x="440" y="40" type="curve"/>
    </contour>
    <contour>
      <point x="300" y="37" type="curve" smooth="yes"/>
      <point x="182" y="37"/>
      <point x="94" y="155"/>
      <point x="94" y="350" type="curve" smooth="yes"/>
      <point x="94" y="545"/>
      <point x="182" y="663"/>
      <point x="300" y="663" type="curve" smooth="yes"/>
      <point x="418" y="663"/>
      <point x="506" y="545"/>
      <point x="506" y="350" type="curve" smooth="yes"/>
      <point x="506" y="247"/>
      <point x="482" y="166"/>
      <point x="441" y="112" type="curve"/>
      <point x="347" y="221" type="line"/>
      <point x="290" y="213" type="line"/>
      <point x="408" y="77" type="line"/>
      <point x="377" y="51"/>
      <point x="340" y="37"/>
    </contour>
  </outline>
</glyph>
<glyph name="T" format="2">
  <advance width="600"/>
  <unicode hex="0054"/>
  <anchor x="300" y="700" name="top"/>
  <anchor x="300" y="0" name="bottom"/>
  <outline>
    <contour>
      <point x="274" y="0" type="line"/>
      <point x="326" y="0" type="line"/>
      <point x="326" y="653" type="line"/>
      <point x="566" y="653" type="line"/>
      <point x="566" y="700" type="line"/>
      <point x="34" y="700" type="line"/>
      <point x="34" y="653" type="line"/>
      <point x="274" y="653" type="line"/>
    </contour>
  </outline>
</glyph>
<glyph name="U" format="2">
  <advance width="600"/>
  <unicode hex="0055"/>
  <anchor x="300" y="700" name="top"/>
  <anchor x="374" y="0" name="bottom"/>
  <outline>
    <contour>
      <point x="300" y="-11" type="curve" smooth="yes"/>
      <point x="446" y="-11"/>
      <point x="537" y="89"/>
      <point x="537" y="252" type="curve" smooth="yes"/>
      <point x="537" y="700" type="line"/>
      <point x="485" y="700" type="line"/>
      <point x="485" y="252" type="line" smooth="yes"/>
      <point x="485" y="121"/>
      <point x="412" y="37"/>
      <point x="300" y="37" type="curve" smooth="yes"/>
      <point x="188" y="37"/>
      <point x="115" y="121"/>
      <point x="115" y="252" type="curve"/>
      <point x="115" y="700" type="line"/>
      <point x="63" y="700" type="line"/>
      <point x="63" y="252" type="line"/>
      <point x="63" y="89"/>
      <point x="154" y="-11"/>
    </contour>
  </outline>
</glyph>
<glyph name="V" format="2">
  <advance width="600"/>
  <unicode hex="0056"/>
  <outline>
    <contour>
      <point x="264" y="0" type="line"/>
      <point x="336" y="0" type="line"/>
      <point x="580" y="700" type="line"/>
      <point x="527" y="700" type="line"/>
      <point x="301" y="38" type="line"/>
      <point x="75" y="700" type="line"/>
      <point x="21" y="700" type="line"/>
    </contour>
  </outline>
</glyph>
<glyph name="X" format="2">
  <advance width="600"/>
  <unicode hex="0058"/>
  <outline>
    <contour>
      <point x="30" y="0" type="line"/>
      <point x="90" y="0" type="line"/>
      <point x="300" y="319" type="line"/>
      <point x="510" y="0" type="line"/>
      <point x="570" y="0" type="line"/>
      <point x="330" y="362" type="line"/>
      <point x="552" y="700" type="line"/>
      <point x="492" y="700" type="line"/>
      <point x="301" y="406" type="line"/>
      <point x="108" y="700" type="line"/>
      <point x="48" y="700" type="line"/>
      <point x="271" y="362" type="line"/>
    </contour>
  </outline>
</glyph>
<glyph name="Y" format="2">
  <advance width="600"/>
  <unicode hex="0059"/>
  <guideline x="299" identifier="u0kcrcG2X0"/>
  <anchor x="300" y="700" name="top"/>
  <outline>
    <contour>
      <point x="273" y="0" type="line"/>
      <point x="325" y="0" type="line"/>
      <point x="325" y="284" type="line"/>
      <point x="570" y="700" type="line"/>
      <point x="514" y="700" type="line"/>
      <point x="301" y="334" type="line"/>
      <point x="89" y="700" type="line"/>
      <point x="30" y="700" type="line"/>
      <point x="273" y="289" type="line"/>
    </contour>
  </outline>
</glyph>
<glyph name="Z" format="2">
  <advance width="600"/>
  <unicode hex="005A"/>
  <guideline x="299" y="700" angle="90.0" identifier="xDkTm3Dn8J"/>
  <anchor x="300" y="700" name="top"/>
  <outline>
    <contour>
      <point x="57" y="0" type="line"/>
      <point x="546" y="0" type="line"/>
      <point x="546" y="47" type="line"/>
      <point x="121" y="47" type="line"/>
      <point x="537" y="661" type="line"/>
      <point x="537" y="700" type="line"/>
      <point x="61" y="700" type="line"/>
      <point x="61" y="653" type="line"/>
      <point x="473" y="653" type="line"/>
      <point x="57" y="39" type="line"/>
    </contour>
  </outline>
</glyph>
<glyph name="bracketleft" format="2">
  <advance width="600"/>
  <unicode hex="005B"/>
  <outline>
    <contour>
      <point x="190" y="-215" type="line"/>
      <point x="465" y="-215" type="line"/>
      <point x="465" y="-172" type="line"/>
      <point x="240" y="-172" type="line"/>
      <point x="240" y="657" type="line"/>
      <point x="465" y="657" type="line"/>
      <point x="465" y="700" type="line"/>
      <point x="190" y="700" type="line"/>
    </contour>
  </outline>
</glyph>
<glyph name="backslash" format="2">
  <advance width="600"/>
  <unicode hex="005C"/>
  <outline>
    <contour>
      <point x="493" y="-209" type="line"/>
      <point x="547" y="-209" type="line"/>
      <point x="148" y="700" type="line"/>
      <point x="94" y="700" type="line"/>
    </contour>
  </outline>
</glyph>
<glyph name="underscore" format="2">
  <advance width="600"/>
  <unicode hex="005F"/>
  <outline>
    <contour>
      <point x="72" y="-124" type="line"/>
      <point x="528" y="-124" type="line"/>
      <point x="528" y="-80" type="line"/>
      <point x="72" y="-80" type="line"/>
    </contour>
  </outline>
</glyph>
<glyph name="grave" format="2">
  <advance width="600"/>
  <unicode hex="0060"/>
  <outline>
    <contour>
      <point x="284" y="579" type="line"/>
      <point x="334" y="579" type="line"/>
      <point x="229" y="695" type="line"/>
      <point x="152" y="695" type="line"/>
    </contour>
  </outline>
</glyph>
<glyph name="a" format="2">
  <advance width="600"/>
  <unicode hex="0061"/>
  <anchor x="286" y="481" name="top"/>
  <anchor x="477" y="0" name="bottom"/>
  <outline>
    <contour>
      <point x="264" y="-10" type="curve" smooth="yes"/>
      <point x="328" y="-10"/>
      <point x="385" y="14"/>
      <point x="429" y="60" type="curve"/>
      <point x="429" y="0" type="line"/>
      <point x="478" y="0" type="line"/>
      <point x="478" y="310" type="line" smooth="yes"/>
      <point x="478" y="425"/>
      <point x="411" y="489"/>
      <point x="292" y="489" type="curve" smooth="yes"/>
      <point x="229" y="489"/>
      <point x="170" y="472"/>
      <point x="108" y="437" type="curve"/>
      <point x="130" y="397" type="line"/>
      <point x="187" y="432"/>
      <point x="234" y="447"/>
      <point x="290" y="447" type="curve" smooth="yes"/>
      <point x="380" y="447"/>
      <point x="429" y="398"/>
      <point x="429" y="301" type="curve" smooth="yes"/>
      <point x="429" y="239" type="line"/>
      <point x="386" y="269"/>
      <point x="331" y="282"/>
      <point x="266" y="282" type="curve" smooth="yes"/>
      <point x="157" y="282"/>
      <point x="81" y="223"/>
      <point x="81" y="138" type="curve" smooth="yes"/>
      <point x="81" y="51"/>
      <point x="156" y="-10"/>
    </contour>
    <contour>
      <point x="130" y="140" type="curve" smooth="yes"/>
      <point x="130" y="199"/>
      <point x="187" y="240"/>
      <point x="271" y="240" type="curve" smooth="yes"/>
      <point x="335" y="240"/>
      <point x="384" y="228"/>
      <point x="429" y="198" type="curve"/>
      <point x="429" y="98" type="line"/>
      <point x="384" y="52"/>
      <point x="333" y="32"/>
      <point x="270" y="32" type="curve"/>
      <point x="187" y="32"/>
      <point x="130" y="75"/>
    </contour>
  </outline>
</glyph>
<glyph name="b" format="2">
  <advance width="600"/>
  <unicode hex="0062"/>
  <guideline x="156" y="178" angle="270.0" identifier="FsIwtXpTI7"/>
  <outline>
    <contour>
      <point x="99" y="0" type="line"/>
      <point x="148" y="0" type="line"/>
      <point x="148" y="68" type="line"/>
      <point x="188" y="18"/>
      <point x="244" y="-8"/>
      <point x="312" y="-8" type="curve" smooth="yes"/>
      <point x="441" y="-8"/>
      <point x="540" y="100"/>
      <point x="540" y="240" type="curve" smooth="yes"/>
      <point x="540" y="379"/>
      <point x="440" y="487"/>
      <point x="310" y="487" type="curve" smooth="yes"/>
      <point x="246" y="487"/>
      <point x="189" y="463"/>
      <point x="149" y="415" type="curve"/>
      <point x="149" y="737" type="line"/>
      <point x="99" y="725" type="line"/>
    </contour>
    <contour>
      <point x="302" y="38" type="curve" smooth="yes"/>
      <point x="237" y="38"/>
      <point x="181" y="67"/>
      <point x="149" y="116" type="curve"/>
      <point x="149" y="367" type="line"/>
      <point x="182" y="414"/>
      <point x="240" y="441"/>
      <point x="302" y="441" type="curve" smooth="yes"/>
      <point x="408" y="441"/>
      <point x="490" y="355"/>
      <point x="490" y="240" type="curve" smooth="yes"/>
      <point x="490" y="125"/>
      <point x="408" y="38"/>
    </contour>
  </outline>
</glyph>
<glyph name="e" format="2">
  <advance width="600"/>
  <unicode hex="0065"/>
  <anchor x="298" y="481" name="top"/>
  <anchor x="379" y="0" name="bottom"/>
  <outline>
    <contour>
      <point x="311" y="-10" type="curve" smooth="yes"/>
      <point x="386" y="-10"/>
      <point x="453" y="19"/>
      <point x="501" y="70" type="curve"/>
      <point x="466" y="102" type="line"/>
      <point x="430" y="60"/>
      <point x="373" y="36"/>
      <point x="313" y="36" type="curve" smooth="yes"/>
      <point x="213" y="36"/>
      <point x="127" y="119"/>
      <point x="122" y="231" type="curve"/>
      <point x="532" y="231" type="line"/>
      <point x="532" y="250" type="line"/>
      <point x="532" y="384"/>
      <point x="431" y="489"/>
      <point x="302" y="489" type="curve" smooth="yes"/>
      <point x="172" y="489"/>
      <point x="72" y="381"/>
      <point x="72" y="240" type="curve" smooth="yes"/>
      <point x="72" y="98"/>
      <point x="181" y="-10"/>
    </contour>
    <contour>
      <point x="124" y="272" type="line"/>
      <point x="137" y="372"/>
      <point x="209" y="443"/>
      <point x="302" y="443" type="curve" smooth="yes"/>
      <point x="398" y="443"/>
      <point x="471" y="369"/>
      <point x="481" y="272" type="curve"/>
    </contour>
  </outline>
</glyph>
<glyph name="f" format="2">
  <advance width="600"/>
  <unicode hex="0066"/>
  <guideline x="505" y="523" angle="270.0" identifier="FBF66FLVFe"/>
  <outline>
    <contour>
      <point x="223" y="0" type="line"/>
      <point x="273" y="0" type="line"/>
      <point x="273" y="438" type="line"/>
      <point x="505" y="438" type="line"/>
      <point x="505" y="481" type="line"/>
      <point x="273" y="481" type="line"/>
      <point x="273" y="589" type="line" smooth="yes"/>
      <point x="273" y="663"/>
      <point x="309" y="694"/>
      <point x="372" y="694" type="curve" smooth="yes"/>
      <point x="422" y="694"/>
      <point x="456" y="687"/>
      <point x="505" y="666" type="curve"/>
      <point x="505" y="716" type="line"/>
      <point x="464" y="731"/>
      <point x="425" y="740"/>
      <point x="385" y="740" type="curve" smooth="yes"/>
      <point x="279" y="740"/>
      <point x="223" y="692"/>
      <point x="223" y="600" type="curve" smooth="yes"/>
      <point x="223" y="481" type="line"/>
      <point x="52" y="481" type="line"/>
      <point x="52" y="438" type="line"/>
      <point x="223" y="438" type="line"/>
    </contour>
  </outline>
</glyph>
<glyph name="l" format="2">
  <advance width="600"/>
  <unicode hex="006C"/>
  <guideline x="291" y="120" angle="90.0" color="0.999,0.001,0.001,0.999" identifier="3MgRrIkslN"/>
  <anchor x="291" y="700" name="top"/>
  <anchor x="400" y="0" name="bottom"/>
  <outline>
    <contour>
      <point x="411" y="-10" type="curve" smooth="yes"/>
      <point x="440" y="-10"/>
      <point x="468" y="-6"/>
      <point x="505" y="5" type="curve"/>
      <point x="505" y="50" type="line"/>
      <point x="463" y="38"/>
      <point x="438" y="35"/>
      <point x="411" y="35" type="curve" smooth="yes"/>
      <point x="350" y="35"/>
      <point x="316" y="64"/>
      <point x="316" y="121" type="curve" smooth="yes"/>
      <point x="316" y="727" type="line"/>
      <point x="85" y="727" type="line"/>
      <point x="85" y="684" type="line"/>
      <point x="266" y="684" type="line"/>
      <point x="266" y="119" type="line" smooth="yes"/>
      <point x="266" y="37"/>
      <point x="320" y="-10"/>
    </contour>
  </outline>
</glyph>
<glyph name="p" format="2">
  <advance width="600"/>
  <unicode hex="0070"/>
  <outline>
    <contour>
      <point x="99" y="-209" type="line"/>
      <point x="149" y="-209" type="line"/>
      <point x="149" y="67" type="line"/>
      <point x="189" y="18"/>
      <point x="245" y="-8"/>
      <point x="312" y="-8" type="curve"/>
      <point x="441" y="-8"/>
      <point x="540" y="100"/>
      <point x="540" y="239" type="curve" smooth="yes"/>
      <point x="540" y="379"/>
      <point x="440" y="487"/>
      <point x="310" y="487" type="curve"/>
      <point x="246" y="487"/>
      <point x="188" y="462"/>
      <point x="148" y="414" type="curve"/>
      <point x="148" y="481" type="line"/>
      <point x="99" y="481" type="line"/>
    </contour>
    <contour>
      <point x="302" y="38" type="curve"/>
      <point x="237" y="38"/>
      <point x="180" y="67"/>
      <point x="149" y="115" type="curve"/>
      <point x="149" y="368" type="line"/>
      <point x="182" y="415"/>
      <point x="240" y="441"/>
      <point x="302" y="441" type="curve"/>
      <point x="408" y="441"/>
      <point x="490" y="355"/>
      <point x="490" y="240" type="curve" smooth="yes"/>
      <point x="490" y="125"/>
      <point x="408" y="38"/>
    </contour>
  </outline>
</glyph>
<glyph name="u" format="2">
  <advance width="600"/>
  <unicode hex="0075"/>
  <anchor x="300" y="481" name="top"/>
  <anchor x="490" y="0" name="bottom"/>
  <outline>
    <contour>
      <point x="287" y="-8" type="curve" smooth="yes"/>
      <point x="352" y="-8"/>
      <point x="404" y="21"/>
      <point x="441" y="76" type="curve"/>
      <point x="441" y="0" type="line"/>
      <point x="491" y="0" type="line"/>
      <point x="491" y="481" type="line"/>
      <point x="441" y="481" type="line"/>
      <point x="441" y="118" type="line"/>
      <point x="411" y="67"/>
      <point x="361" y="36"/>
      <point x="301" y="36" type="curve" smooth="yes"/>
      <point x="214" y="36"/>
      <point x="158" y="95"/>
      <point x="158" y="187" type="curve" smooth="yes"/>
      <point x="158" y="481" type="line"/>
      <point x="108" y="481" type="line"/>
      <point x="108" y="173" type="line" smooth="yes"/>
      <point x="108" y="66"/>
      <point x="180" y="-8"/>
    </contour>
  </outline>
</glyph>
<glyph name="v" format="2">
  <advance width="600"/>
  <unicode hex="0076"/>
  <outline>
    <contour>
      <point x="277" y="0" type="line"/>
      <point x="324" y="0" type="line"/>
      <point x="534" y="481" type="line"/>
      <point x="480" y="481" type="line"/>
      <point x="302" y="59" type="line"/>
      <point x="120" y="481" type="line"/>
      <point x="66" y="481" type="line"/>
    </contour>
  </outline>
</glyph>
<glyph name="w" format="2">
  <advance width="600"/>
  <unicode hex="0077"/>
  <guideline x="266" y="78" angle="0.0" identifier="o3X4i4dtHm"/>
  <anchor x="300" y="481" name="top"/>
  <outline>
    <contour>
      <point x="142" y="0" type="line"/>
      <point x="192" y="0" type="line"/>
      <point x="300" y="408" type="line"/>
      <point x="409" y="0" type="line"/>
      <point x="458" y="0" type="line"/>
      <point x="557" y="481" type="line"/>
      <point x="511" y="481" type="line"/>
      <point x="432" y="78" type="line"/>
      <point x="324" y="481" type="line"/>
      <point x="277" y="481" type="line"/>
      <point x="170" y="78" type="line"/>
      <point x="91" y="481" type="line"/>
      <point x="43" y="481" type="line"/>
    </contour>
  </outline>
</glyph>
<glyph name="x" format="2">
  <advance width="600"/>
  <unicode hex="0078"/>
  <outline>
    <contour>
      <point x="69" y="0" type="line"/>
      <point x="126" y="0" type="line"/>
      <point x="299" y="218" type="line"/>
      <point x="471" y="0" type="line"/>
      <point x="531" y="0" type="line"/>
      <point x="331" y="251" type="line"/>
      <point x="518" y="481" type="line"/>
      <point x="460" y="481" type="line"/>
      <point x="300" y="283" type="line"/>
      <point x="143" y="481" type="line"/>
      <point x="82" y="481" type="line"/>
      <point x="268" y="250" type="line"/>
    </contour>
  </outline>
</glyph>
<glyph name="braceleft" format="2">
  <advance width="600"/>
  <unicode hex="007B"/>
  <outline>
    <contour>
      <point x="334" y="-219" type="curve" smooth="yes"/>
      <point x="366" y="-219"/>
      <point x="412" y="-213"/>
      <point x="456" y="-190" type="curve"/>
      <point x="438" y="-152" type="line"/>
      <point x="395" y="-172"/>
      <point x="363" y="-175"/>
      <point x="330" y="-175" type="curve" smooth="yes"/>
      <point x="283" y="-175"/>
      <point x="253" y="-145"/>
      <point x="253" y="-100" type="curve" smooth="yes"/>
      <point x="253" y="-30"/>
      <point x="344" y="64"/>
      <point x="344" y="134" type="curve" smooth="yes"/>
      <point x="344" y="186"/>
      <point x="308" y="232"/>
      <point x="258" y="246" type="curve"/>
      <point x="307" y="260"/>
      <point x="344" y="306"/>
      <point x="344" y="357" type="curve" smooth="yes"/>
      <point x="344" y="427"/>
      <point x="253" y="522"/>
      <point x="253" y="592" type="curve" smooth="yes"/>
      <point x="253" y="637"/>
      <point x="283" y="666"/>
      <point x="330" y="667" type="curve"/>
      <point x="363" y="667"/>
      <point x="395" y="664"/>
      <point x="438" y="644" type="curve"/>
      <point x="456" y="682" type="line"/>
      <point x="412" y="705"/>
      <point x="366" y="711"/>
      <point x="334" y="711" type="curve"/>
      <point x="255" y="711"/>
      <point x="206" y="657"/>
      <point x="206" y="593" type="curve" smooth="yes"/>
      <point x="206" y="500"/>
      <point x="297" y="416"/>
      <point x="297" y="347" type="curve" smooth="yes"/>
      <point x="297" y="301"/>
      <point x="260" y="269"/>
      <point x="197" y="269" type="curve" smooth="yes"/>
      <point x="117" y="269" type="line"/>
      <point x="117" y="223" type="line"/>
      <point x="197" y="223" type="line" smooth="yes"/>
      <point x="260" y="223"/>
      <point x="297" y="191"/>
      <point x="297" y="144" type="curve" smooth="yes"/>
      <point x="297" y="75"/>
      <point x="206" y="-8"/>
      <point x="206" y="-101" type="curve" smooth="yes"/>
      <point x="206" y="-165"/>
      <point x="255" y="-219"/>
    </contour>
  </outline>
</glyph>
<glyph name="bar" format="2">
  <advance width="600"/>
  <unicode hex="007C"/>
  <outline>
    <contour>
      <point x="277" y="-209" type="line"/>
      <point x="324" y="-209" type="line"/>
      <point x="324" y="700" type="line"/>
      <point x="277" y="700" type="line"/>
    </contour>
  </outline>
</glyph>
<glyph name="section" format="2">
  <advance width="600"/>
  <unicode hex="00A7"/>
  <outline>
    <contour>
      <point x="300" y="-49" type="curve" smooth="yes"/>
      <point x="395" y="-49"/>
      <point x="456" y="3"/>
      <point x="456" y="81" type="curve" smooth="yes"/>
      <point x="456" y="128"/>
      <point x="435" y="165"/>
      <point x="394" y="191" type="curve"/>
      <point x="462" y="205"/>
      <point x="505" y="250"/>
      <point x="505" y="313" type="curve" smooth="yes"/>
      <point x="505" y="384"/>
      <point x="469" y="421"/>
      <point x="375" y="454" type="curve" smooth="yes"/>
      <point x="270" y="491" type="line" smooth="yes"/>
      <point x="217" y="507"/>
      <point x="192" y="536"/>
      <point x="192" y="580" type="curve" smooth="yes"/>
      <point x="192" y="633"/>
      <point x="233" y="665"/>
      <point x="300" y="665" type="curve" smooth="yes"/>
      <point x="344" y="665"/>
      <point x="394" y="652"/>
      <point x="442" y="623" type="curve"/>
      <point x="463" y="665" type="line"/>
      <point x="412" y="695"/>
      <point x="354" y="711"/>
      <point x="300" y="711" type="curve" smooth="yes"/>
      <point x="205" y="711"/>
      <point x="144" y="659"/>
      <point x="144" y="581" type="curve" smooth="yes"/>
      <point x="144" y="534"/>
      <point x="165" y="497"/>
      <point x="206" y="471" type="curve"/>
      <point x="138" y="457"/>
      <point x="95" y="412"/>
      <point x="95" y="349" type="curve" smooth="yes"/>
      <point x="95" y="278"/>
      <point x="131" y="241"/>
      <point x="225" y="208" type="curve" smooth="yes"/>
      <point x="330" y="171" type="line" smooth="yes"/>
      <point x="383" y="155"/>
      <point x="408" y="126"/>
      <point x="408" y="82" type="curve" smooth="yes"/>
      <point x="408" y="29"/>
      <point x="367" y="-3"/>
      <point x="300" y="-3" type="curve" smooth="yes"/>
      <point x="256" y="-3"/>
      <point x="206" y="10"/>
      <point x="158" y="39" type="curve"/>
      <point x="137" y="-3" type="line"/>
      <point x="188" y="-33"/>
      <point x="246" y="-49"/>
    </contour>
    <contour>
      <point x="344" y="215" type="curve" smooth="yes"/>
      <point x="236" y="252" type="line" smooth="yes"/>
      <point x="172" y="274"/>
      <point x="143" y="305"/>
      <point x="143" y="350" type="curve" smooth="yes"/>
      <point x="143" y="405"/>
      <point x="185" y="442"/>
      <point x="253" y="448" type="curve"/>
      <point x="254" y="448"/>
      <point x="255" y="447"/>
      <point x="256" y="447" type="curve" smooth="yes"/>
      <point x="364" y="410" type="line" smooth="yes"/>
      <point x="428" y="388"/>
      <point x="457" y="357"/>
      <point x="457" y="312" type="curve" smooth="yes"/>
      <point x="457" y="257"/>
      <point x="415" y="220"/>
      <point x="347" y="214" type="curve"/>
      <point x="346" y="214"/>
      <point x="345" y="215"/>
    </contour>
  </outline>
</glyph>
<glyph name="guillemotleft" format="2">
  <advance width="600"/>
  <unicode hex="00AB"/>
  <outline>
    <contour>
      <point x="288" y="0" type="line"/>
      <point x="347" y="0" type="line"/>
      <point x="115" y="243" type="line"/>
      <point x="347" y="481" type="line"/>
      <point x="291" y="481" type="line"/>
      <point x="51" y="241" type="line"/>
    </contour>
    <contour>
      <point x="501" y="0" type="line"/>
      <point x="560" y="0" type="line"/>
      <point x="328" y="243" type="line"/>
      <point x="560" y="481" type="line"/>
      <point x="504" y="481" type="line"/>
      <point x="265" y="241" type="line"/>
    </contour>
  </outline>
</glyph>
<glyph name="degree" format="2">
  <advance width="600"/>
  <unicode hex="00B0"/>
  <outline>
    <contour>
      <point x="301" y="431" type="curve" smooth="yes"/>
      <point x="377" y="431"/>
      <point x="440" y="494"/>
      <point x="440" y="571" type="curve" smooth="yes"/>
      <point x="440" y="648"/>
      <point x="377" y="711"/>
      <point x="301" y="711" type="curve" smooth="yes"/>
      <point x="225" y="711"/>
      <point x="162" y="648"/>
      <point x="162" y="571" type="curve" smooth="yes"/>
      <point x="162" y="494"/>
      <point x="225" y="431"/>
    </contour>
    <contour>
      <point x="301" y="471" type="curve" smooth="yes"/>
      <point x="248" y="471"/>
      <point x="203" y="515"/>
      <point x="203" y="571" type="curve" smooth="yes"/>
      <point x="203" y="627"/>
      <point x="248" y="671"/>
      <point x="301" y="671" type="curve" smooth="yes"/>
      <point x="354" y="671"/>
      <point x="399" y="627"/>
      <point x="399" y="571" type="curve" smooth="yes"/>
      <point x="399" y="515"/>
      <point x="354" y="471"/>
    </contour>
  </outline>
</glyph>
<glyph name="plusminus" format="2">
  <advance width="600"/>
  <unicode hex="00B1"/>
  <outline>
    <contour>
      <point x="277" y="165" type="line"/>
      <point x="323" y="165" type="line"/>
      <point x="323" y="347" type="line"/>
      <point x="490" y="347" type="line"/>
      <point x="490" y="392" type="line"/>
      <point x="323" y="392" type="line"/>
      <point x="323" y="574" type="line"/>
      <point x="277" y="574" type="line"/>
      <point x="277" y="392" type="line"/>
      <point x="110" y="392" type="line"/>
      <point x="110" y="347" type="line"/>
      <point x="277" y="347" type="line"/>
    </contour>
    <contour>
      <point x="110" y="-1" type="line"/>
      <point x="490" y="-1" type="line"/>
      <point x="490" y="44" type="line"/>
      <point x="110" y="44" type="line"/>
    </contour>
  </outline>
</glyph>
<glyph name="paragraph" format="2">
  <advance width="600"/>
  <unicode hex="00B6"/>
  <outline>
    <contour>
      <point x="305" y="0" type="line"/>
      <point x="357" y="0" type="line"/>
      <point x="357" y="302" type="line"/>
      <point x="476" y="302" type="line"/>
      <point x="476" y="0" type="line"/>
      <point x="528" y="0" type="line"/>
      <point x="528" y="700" type="line"/>
      <point x="244" y="700" type="line" smooth="yes"/>
      <point x="124" y="700"/>
      <point x="42" y="619"/>
      <point x="42" y="501" type="curve" smooth="yes"/>
      <point x="42" y="383"/>
      <point x="124" y="302"/>
      <point x="244" y="302" type="curve" smooth="yes"/>
      <point x="305" y="302" type="line"/>
    </contour>
    <contour>
      <point x="476" y="349" type="line"/>
      <point x="357" y="349" type="line"/>
      <point x="357" y="653" type="line"/>
      <point x="476" y="653" type="line"/>
    </contour>
    <contour>
      <point x="246" y="349" type="line" smooth="yes"/>
      <point x="155" y="349"/>
      <point x="94" y="408"/>
      <point x="94" y="501" type="curve" smooth="yes"/>
      <point x="94" y="594"/>
      <point x="155" y="653"/>
      <point x="246" y="653" type="curve" smooth="yes"/>
      <point x="305" y="653" type="line"/>
      <point x="305" y="349" type="line"/>
    </contour>
  </outline>
</glyph>
<glyph name="periodcentered" format="2">
  <advance width="600"/>
  <unicode hex="00B7"/>
  <outline>
    <contour>
      <point x="300" y="237" type="curve" smooth="yes"/>
      <point x="329" y="237"/>
      <point x="353" y="261"/>
      <point x="353" y="291" type="curve" smooth="yes"/>
      <point x="353" y="321"/>
      <point x="329" y="345"/>
      <point x="300" y="345" type="curve" smooth="yes"/>
      <point x="271" y="345"/>
      <point x="247" y="321"/>
      <point x="247" y="291" type="curve" smooth="yes"/>
      <point x="247" y="261"/>
      <point x="271" y="237"/>
    </contour>
  </outline>
</glyph>
<glyph name="onequarter" format="2">
  <advance width="600"/>
  <unicode hex="00BC"/>
  <outline>
    <contour>
      <point x="122" y="418" type="line"/>
      <point x="161" y="418" type="line"/>
      <point x="161" y="700" type="line"/>
      <point x="136" y="700" type="line"/>
      <point x="68" y="672" type="line"/>
      <point x="68" y="634" type="line"/>
      <point x="122" y="655" type="line"/>
    </contour>
    <contour>
      <point x="481" y="0" type="line"/>
      <point x="520" y="0" type="line"/>
      <point x="520" y="71" type="line"/>
      <point x="554" y="71" type="line"/>
      <point x="554" y="106" type="line"/>
      <point x="520" y="106" type="line"/>
      <point x="520" y="282" type="line"/>
      <point x="474" y="282" type="line"/>
      <point x="319" y="105" type="line"/>
      <point x="319" y="71" type="line"/>
      <point x="481" y="71" type="line"/>
    </contour>
    <contour>
      <point x="366" y="106" type="line"/>
      <point x="481" y="237" type="line"/>
      <point x="481" y="106" type="line"/>
    </contour>
    <component base="fraction" xOffset="5"/>
  </outline>
</glyph>
<glyph name="onehalf" format="2">
  <advance width="600"/>
  <unicode hex="00BD"/>
  <guideline x="444" y="242" angle="90.0" identifier="laDBWBuMGu"/>
  <outline>
    <contour>
      <point x="122" y="418" type="line"/>
      <point x="161" y="418" type="line"/>
      <point x="161" y="700" type="line"/>
      <point x="136" y="700" type="line"/>
      <point x="68" y="672" type="line"/>
      <point x="68" y="634" type="line"/>
      <point x="122" y="655" type="line"/>
    </contour>
    <contour>
      <point x="350" y="0" type="line"/>
      <point x="545" y="0" type="line"/>
      <point x="545" y="36" type="line"/>
      <point x="407" y="36" type="line"/>
      <point x="490" y="113" type="line" smooth="yes"/>
      <point x="528" y="148"/>
      <point x="540" y="173"/>
      <point x="540" y="205" type="curve" smooth="yes"/>
      <point x="540" y="251"/>
      <point x="500" y="287"/>
      <point x="444" y="287" type="curve" smooth="yes"/>
      <point x="410" y="287"/>
      <point x="378" y="273"/>
      <point x="342" y="244" type="curve"/>
      <point x="366" y="217" type="line"/>
      <point x="392" y="242"/>
      <point x="412" y="251"/>
      <point x="444" y="251" type="curve" smooth="yes"/>
      <point x="476" y="251"/>
      <point x="500" y="230"/>
      <point x="500" y="202" type="curve"/>
      <point x="500" y="178"/>
      <point x="490" y="162"/>
      <point x="462" y="135" type="curve" smooth="yes"/>
      <point x="350" y="29" type="line"/>
    </contour>
    <component base="fraction" xOffset="1"/>
  </outline>
</glyph>
<glyph name="threequarters" format="2">
  <advance width="600"/>
  <unicode hex="00BE"/>
  <outline>
    <contour>
      <point x="147" y="413" type="curve" smooth="yes"/>
      <point x="208" y="413"/>
      <point x="253" y="446"/>
      <point x="253" y="495" type="curve" smooth="yes"/>
      <point x="253" y="530"/>
      <point x="224" y="554"/>
      <point x="183" y="562" type="curve"/>
      <point x="220" y="571"/>
      <point x="244" y="596"/>
      <point x="244" y="627" type="curve" smooth="yes"/>
      <point x="244" y="674"/>
      <point x="202" y="705"/>
      <point x="146" y="705" type="curve" smooth="yes"/>
      <point x="111" y="705"/>
      <point x="73" y="692"/>
      <point x="44" y="667" type="curve"/>
      <point x="68" y="638" type="line"/>
      <point x="93" y="660"/>
      <point x="118" y="669"/>
      <point x="146" y="669" type="curve" smooth="yes"/>
      <point x="178" y="669"/>
      <point x="204" y="650"/>
      <point x="204" y="623" type="curve" smooth="yes"/>
      <point x="204" y="595"/>
      <point x="178" y="575"/>
      <point x="142" y="575" type="curve"/>
      <point x="120" y="575" type="line"/>
      <point x="120" y="542" type="line"/>
      <point x="146" y="542" type="line"/>
      <point x="186" y="542"/>
      <point x="213" y="525"/>
      <point x="213" y="496" type="curve" smooth="yes"/>
      <point x="213" y="468"/>
      <point x="185" y="449"/>
      <point x="147" y="449" type="curve" smooth="yes"/>
      <point x="118" y="449"/>
      <point x="91" y="457"/>
      <point x="63" y="478" type="curve"/>
      <point x="40" y="448" type="line"/>
      <point x="70" y="425"/>
      <point x="107" y="413"/>
    </contour>
    <contour>
      <point x="481" y="0" type="line"/>
      <point x="520" y="0" type="line"/>
      <point x="520" y="71" type="line"/>
      <point x="554" y="71" type="line"/>
      <point x="554" y="106" type="line"/>
      <point x="520" y="106" type="line"/>
      <point x="520" y="282" type="line"/>
      <point x="474" y="282" type="line"/>
      <point x="319" y="105" type="line"/>
      <point x="319" y="71" type="line"/>
      <point x="481" y="71" type="line"/>
    </contour>
    <contour>
      <point x="366" y="106" type="line"/>
      <point x="481" y="237" type="line"/>
      <point x="481" y="106" type="line"/>
    </contour>
    <component base="fraction" xOffset="25"/>
  </outline>
</glyph>
<glyph name="Oslash" format="2">
  <advance width="600"/>
  <unicode hex="00D8"/>
  <outline>
    <contour>
      <point x="300" y="-11" type="curve" smooth="yes"/>
      <point x="438" y="-11"/>
      <point x="558" y="118"/>
      <point x="558" y="350" type="curve" smooth="yes"/>
      <point x="558" y="451"/>
      <point x="535" y="532"/>
      <point x="499" y="592" type="curve"/>
      <point x="576" y="701" type="line"/>
      <point x="520" y="701" type="line"/>
      <point x="470" y="630" type="line"/>
      <point x="424" y="683"/>
      <point x="364" y="711"/>
      <point x="300" y="711" type="curve" smooth="yes"/>
      <point x="162" y="711"/>
      <point x="42" y="582"/>
      <point x="42" y="350" type="curve" smooth="yes"/>
      <point x="42" y="250"/>
      <point x="64" y="169"/>
      <point x="101" y="109" type="curve"/>
      <point x="24" y="0" type="line"/>
      <point x="80" y="0" type="line"/>
      <point x="130" y="70" type="line"/>
      <point x="176" y="17"/>
      <point x="236" y="-11"/>
    </contour>
    <contour>
      <point x="133" y="154" type="line"/>
      <point x="108" y="205"/>
      <point x="94" y="271"/>
      <point x="94" y="350" type="curve" smooth="yes"/>
      <point x="94" y="545"/>
      <point x="182" y="663"/>
      <point x="300" y="663" type="curve" smooth="yes"/>
      <point x="356" y="663"/>
      <point x="404" y="637"/>
      <point x="441" y="589" type="curve"/>
    </contour>
    <contour>
      <point x="300" y="37" type="curve" smooth="yes"/>
      <point x="244" y="37"/>
      <point x="195" y="63"/>
      <point x="159" y="112" type="curve"/>
      <point x="467" y="546" type="line"/>
      <point x="492" y="495"/>
      <point x="506" y="429"/>
      <point x="506" y="350" type="curve" smooth="yes"/>
      <point x="506" y="155"/>
      <point x="418" y="37"/>
    </contour>
  </outline>
</glyph>
<glyph name="Thorn" format="2">
  <advance width="600"/>
  <unicode hex="00DE"/>
  <outline>
    <contour>
      <point x="105" y="0" type="line"/>
      <point x="157" y="0" type="line"/>
      <point x="157" y="149" type="line"/>
      <point x="324" y="149" type="line" smooth="yes"/>
      <point x="457" y="149"/>
      <point x="541" y="227"/>
      <point x="541" y="350" type="curve" smooth="yes"/>
      <point x="541" y="473"/>
      <point x="457" y="551"/>
      <point x="324" y="551" type="curve" smooth="yes"/>
      <point x="157" y="551" type="line"/>
      <point x="157" y="700" type="line"/>
      <point x="105" y="700" type="line"/>
    </contour>
    <contour>
      <point x="157" y="196" type="line"/>
      <point x="157" y="504" type="line"/>
      <point x="321" y="504" type="line" smooth="yes"/>
      <point x="426" y="504"/>
      <point x="489" y="447"/>
      <point x="489" y="350" type="curve" smooth="yes"/>
      <point x="489" y="253"/>
      <point x="426" y="196"/>
      <point x="321" y="196" type="curve" smooth="yes"/>
    </contour>
  </outline>
</glyph>
<glyph name="eth" format="2">
  <advance width="600"/>
  <unicode hex="00F0"/>
  <outline>
    <contour>
      <point x="296" y="-10" type="curve" smooth="yes"/>
      <point x="438" y="-10"/>
      <point x="536" y="106"/>
      <point x="536" y="281" type="curve" smooth="yes"/>
      <point x="536" y="435"/>
      <point x="493" y="557"/>
      <point x="410" y="641" type="curve"/>
      <point x="511" y="706" type="line"/>
      <point x="490" y="739" type="line"/>
      <point x="379" y="668" type="line"/>
      <point x="342" y="698"/>
      <point x="298" y="721"/>
      <point x="248" y="737" type="curve"/>
      <point x="232" y="699" type="line"/>
      <point x="274" y="685"/>
      <point x="310" y="667"/>
      <point x="341" y="644" type="curve"/>
      <point x="253" y="587" type="line"/>
      <point x="275" y="553" type="line"/>
      <point x="373" y="617" type="line"/>
      <point x="439" y="554"/>
      <point x="477" y="465"/>
      <point x="489" y="354" type="curve"/>
      <point x="454" y="429"/>
      <point x="379" y="480"/>
      <point x="289" y="480" type="curve" smooth="yes"/>
      <point x="161" y="480"/>
      <point x="64" y="381"/>
      <point x="64" y="239" type="curve" smooth="yes"/>
      <point x="64" y="99"/>
      <point x="166" y="-10"/>
    </contour>
    <contour>
      <point x="298" y="36" type="curve" smooth="yes"/>
      <point x="194" y="36"/>
      <point x="114" y="123"/>
      <point x="114" y="236" type="curve" smooth="yes"/>
      <point x="114" y="349"/>
      <point x="194" y="436"/>
      <point x="298" y="436" type="curve" smooth="yes"/>
      <point x="402" y="436"/>
      <point x="482" y="349"/>
      <point x="482" y="236" type="curve" smooth="yes"/>
      <point x="482" y="123"/>
      <point x="402" y="36"/>
    </contour>
  </outline>
</glyph>
<glyph name="divide" format="2">
  <advance width="600"/>
  <unicode hex="00F7"/>
  <outline>
    <contour>
      <point x="300" y="142" type="curve" smooth="yes"/>
      <point x="323" y="142"/>
      <point x="343" y="161"/>
      <point x="343" y="185" type="curve" smooth="yes"/>
      <point x="343" y="209"/>
      <point x="323" y="228"/>
      <point x="300" y="228" type="curve" smooth="yes"/>
      <point x="277" y="228"/>
      <point x="257" y="209"/>
      <point x="257" y="185" type="curve" smooth="yes"/>
      <point x="257" y="161"/>
      <point x="277" y="142"/>
    </contour>
    <contour>
      <point x="300" y="487" type="curve" smooth="yes"/>
      <point x="323" y="487"/>
      <point x="343" y="506"/>
      <point x="343" y="530" type="curve" smooth="yes"/>
      <point x="343" y="554"/>
      <point x="323" y="573"/>
      <point x="300" y="573" type="curve" smooth="yes"/>
      <point x="277" y="573"/>
      <point x="257" y="554"/>
      <point x="257" y="530" type="curve" smooth="yes"/>
      <point x="257" y="506"/>
      <point x="277" y="487"/>
    </contour>
    <contour>
      <point x="110" y="335" type="line"/>
      <point x="490" y="335" type="line"/>
      <point x="490" y="380" type="line"/>
      <point x="110" y="380" type="line"/>
    </contour>
  </outline>
</glyph>
<glyph name="oslash" format="2">
  <advance width="600"/>
  <unicode hex="00F8"/>
  <outline>
    <contour>
      <point x="77" y="0" type="line"/>
      <point x="132" y="0" type="line"/>
      <point x="162" y="37" type="line"/>
      <point x="200" y="7"/>
      <point x="248" y="-10"/>
      <point x="300" y="-10" type="curve" smooth="yes"/>
      <point x="430" y="-10"/>
      <point x="530" y="98"/>
      <point x="530" y="240" type="curve" smooth="yes"/>
      <point x="530" y="308"/>
      <point x="507" y="368"/>
      <point x="468" y="412" type="curve"/>
      <point x="524" y="481" type="line"/>
      <point x="469" y="481" type="line"/>
      <point x="437" y="442" type="line"/>
      <point x="399" y="472"/>
      <point x="352" y="489"/>
      <point x="300" y="489" type="curve" smooth="yes"/>
      <point x="170" y="489"/>
      <point x="70" y="381"/>
      <point x="70" y="240" type="curve" smooth="yes"/>
      <point x="70" y="172"/>
      <point x="93" y="111"/>
      <point x="132" y="67" type="curve"/>
    </contour>
    <contour>
      <point x="163" y="105" type="line"/>
      <point x="136" y="140"/>
      <point x="120" y="187"/>
      <point x="120" y="240" type="curve" smooth="yes"/>
      <point x="120" y="356"/>
      <point x="197" y="443"/>
      <point x="300" y="443" type="curve" smooth="yes"/>
      <point x="341" y="443"/>
      <point x="378" y="429"/>
      <point x="407" y="405" type="curve"/>
    </contour>
    <contour>
      <point x="300" y="36" type="curve" smooth="yes"/>
      <point x="259" y="36"/>
      <point x="222" y="50"/>
      <point x="192" y="74" type="curve"/>
      <point x="437" y="375" type="line"/>
      <point x="464" y="339"/>
      <point x="480" y="293"/>
      <point x="480" y="240" type="curve" smooth="yes"/>
      <point x="480" y="123"/>
      <point x="403" y="36"/>
    </contour>
  </outline>
</glyph>
<glyph name="thorn" format="2">
  <advance width="600"/>
  <unicode hex="00FE"/>
  <outline>
    <contour>
      <point x="97" y="-209" type="line"/>
      <point x="147" y="-209" type="line"/>
      <point x="147" y="70" type="line"/>
      <point x="187" y="19"/>
      <point x="243" y="-8"/>
      <point x="312" y="-8" type="curve" smooth="yes"/>
      <point x="441" y="-8"/>
      <point x="540" y="100"/>
      <point x="540" y="239" type="curve" smooth="yes"/>
      <point x="540" y="379"/>
      <point x="440" y="487"/>
      <point x="310" y="487" type="curve" smooth="yes"/>
      <point x="245" y="487"/>
      <point x="187" y="462"/>
      <point x="147" y="413" type="curve"/>
      <point x="147" y="737" type="line"/>
      <point x="97" y="725" type="line"/>
    </contour>
    <contour>
      <point x="302" y="442" type="curve" smooth="yes"/>
      <point x="408" y="442"/>
      <point x="490" y="356"/>
      <point x="490" y="240" type="curve" smooth="yes"/>
      <point x="490" y="124"/>
      <point x="408" y="37"/>
      <point x="302" y="37" type="curve" smooth="yes"/>
      <point x="236" y="37"/>
      <point x="178" y="67"/>
      <point x="147" y="118" type="curve"/>
      <point x="147" y="365" type="line"/>
      <point x="180" y="414"/>
      <point x="239" y="442"/>
    </contour>
  </outline>
</glyph>
<glyph name="Dcroat" format="2">
  <advance width="600"/>
  <unicode hex="0110"/>
  <outline>
    <contour>
      <point x="103" y="0" type="line"/>
      <point x="281" y="0" type="line" smooth="yes"/>
      <point x="426" y="0"/>
      <point x="553" y="124"/>
      <point x="553" y="350" type="curve" smooth="yes"/>
      <point x="553" y="576"/>
      <point x="426" y="700"/>
      <point x="281" y="700" type="curve" smooth="yes"/>
      <point x="103" y="700" type="line"/>
      <point x="103" y="373" type="line"/>
      <point x="17" y="373" type="line"/>
      <point x="17" y="329" type="line"/>
      <point x="103" y="329" type="line"/>
    </contour>
    <contour>
      <point x="155" y="46" type="line"/>
      <point x="155" y="329" type="line"/>
      <point x="286" y="329" type="line"/>
      <point x="286" y="373" type="line"/>
      <point x="155" y="373" type="line"/>
      <point x="155" y="653" type="line"/>
      <point x="272" y="653" type="line" smooth="yes"/>
      <point x="404" y="653"/>
      <point x="501" y="540"/>
      <point x="501" y="350" type="curve" smooth="yes"/>
      <point x="501" y="160"/>
      <point x="404" y="46"/>
      <point x="272" y="46" type="curve" smooth="yes"/>
    </contour>
  </outline>
</glyph>
<glyph name="Hbar" format="2">
  <advance width="600"/>
  <unicode hex="0126"/>
  <outline>
    <contour>
      <point x="79" y="0" type="line"/>
      <point x="131" y="0" type="line"/>
      <point x="131" y="329" type="line"/>
      <point x="469" y="329" type="line"/>
      <point x="469" y="0" type="line"/>
      <point x="521" y="0" type="line"/>
      <point x="521" y="529" type="line"/>
      <point x="593" y="529" type="line"/>
      <point x="593" y="573" type="line"/>
      <point x="521" y="573" type="line"/>
      <point x="521" y="700" type="line"/>
      <point x="469" y="700" type="line"/>
      <point x="469" y="573" type="line"/>
      <point x="131" y="573" type="line"/>
      <point x="131" y="700" type="line"/>
      <point x="79" y="700" type="line"/>
      <point x="79" y="573" type="line"/>
      <point x="7" y="573" type="line"/>
      <point x="7" y="529" type="line"/>
      <point x="79" y="529" type="line"/>
    </contour>
    <contour>
      <point x="131" y="376" type="line"/>
      <point x="131" y="529" type="line"/>
      <point x="469" y="529" type="line"/>
      <point x="469" y="376" type="line"/>
    </contour>
  </outline>
</glyph>
<glyph name="Iogonek" format="2">
  <advance width="600"/>
  <unicode hex="012E"/>
  <outline>
    <contour>
      <point x="90" y="0" type="line"/>
      <point x="461" y="0" type="line"/>
      <point x="386" y="-55"/>
      <point x="360" y="-96"/>
      <point x="360" y="-142" type="curve" smooth="yes"/>
      <point x="360" y="-193"/>
      <point x="398" y="-231"/>
      <point x="466" y="-231" type="curve" smooth="yes"/>
      <point x="492" y="-231"/>
      <point x="516" y="-224"/>
      <point x="533" y="-213" type="curve"/>
      <point x="521" y="-182" type="line"/>
      <point x="508" y="-190"/>
      <point x="489" y="-195"/>
      <point x="472" y="-195" type="curve" smooth="yes"/>
      <point x="429" y="-195"/>
      <point x="400" y="-174"/>
      <point x="400" y="-134" type="curve" smooth="yes"/>
      <point x="400" y="-97"/>
      <point x="426" y="-56"/>
      <point x="510" y="0" type="curve"/>
      <point x="510" y="47" type="line"/>
      <point x="326" y="47" type="line"/>
      <point x="326" y="653" type="line"/>
      <point x="510" y="653" type="line"/>
      <point x="510" y="700" type="line"/>
      <point x="90" y="700" type="line"/>
      <point x="90" y="653" type="line"/>
      <point x="274" y="653" type="line"/>
      <point x="274" y="47" type="line"/>
      <point x="90" y="47" type="line"/>
    </contour>
  </outline>
</glyph>
<glyph name="iogonek" format="2">
  <advance width="600"/>
  <unicode hex="012F"/>
  <outline>
    <contour>
      <point x="291" y="602" type="curve" smooth="yes"/>
      <point x="321" y="602"/>
      <point x="344" y="627"/>
      <point x="344" y="657" type="curve" smooth="yes"/>
      <point x="344" y="687"/>
      <point x="321" y="712"/>
      <point x="291" y="712" type="curve" smooth="yes"/>
      <point x="261" y="712"/>
      <point x="238" y="687"/>
      <point x="238" y="657" type="curve" smooth="yes"/>
      <point x="238" y="627"/>
      <point x="261" y="602"/>
    </contour>
    <contour>
      <point x="425" y="-231" type="curve" smooth="yes"/>
      <point x="451" y="-231"/>
      <point x="475" y="-224"/>
      <point x="492" y="-213" type="curve"/>
      <point x="480" y="-182" type="line"/>
      <point x="467" y="-190"/>
      <point x="448" y="-195"/>
      <point x="431" y="-195" type="curve" smooth="yes"/>
      <point x="388" y="-195"/>
      <point x="359" y="-174"/>
      <point x="359" y="-134" type="curve" smooth="yes"/>
      <point x="359" y="-98"/>
      <point x="383" y="-59"/>
      <point x="461" y="-6" type="curve"/>
      <point x="474" y="-3"/>
      <point x="491" y="1"/>
      <point x="505" y="5" type="curve"/>
      <point x="505" y="50" type="line"/>
      <point x="463" y="38"/>
      <point x="438" y="35"/>
      <point x="411" y="35" type="curve" smooth="yes"/>
      <point x="350" y="35"/>
      <point x="316" y="64"/>
      <point x="316" y="121" type="curve" smooth="yes"/>
      <point x="316" y="481" type="line"/>
      <point x="85" y="481" type="line"/>
      <point x="85" y="438" type="line"/>
      <point x="266" y="438" type="line"/>
      <point x="266" y="119" type="line" smooth="yes"/>
      <point x="266" y="38"/>
      <point x="318" y="-9"/>
      <point x="407" y="-10" type="curve"/>
      <point x="342" y="-60"/>
      <point x="319" y="-99"/>
      <point x="319" y="-142" type="curve" smooth="yes"/>
      <point x="319" y="-193"/>
      <point x="357" y="-231"/>
    </contour>
  </outline>
</glyph>
<glyph name="dotlessi" format="2">
  <advance width="600"/>
  <unicode hex="0131"/>
  <note>
Version created Wed Nov 11 16:21:20 2020
</note>
  <anchor x="293" y="481" name="top"/>
  <anchor x="469" y="0" name="bottom"/>
  <outline>
    <contour>
      <point x="411" y="-10" type="curve" smooth="yes"/>
      <point x="440" y="-10"/>
      <point x="468" y="-4"/>
      <point x="505" y="7" type="curve"/>
      <point x="505" y="53" type="line"/>
      <point x="463" y="41"/>
      <point x="438" y="36"/>
      <point x="411" y="36" type="curve" smooth="yes"/>
      <point x="350" y="36"/>
      <point x="316" y="65"/>
      <point x="316" y="122" type="curve" smooth="yes"/>
      <point x="316" y="481" type="line"/>
      <point x="85" y="481" type="line"/>
      <point x="85" y="438" type="line"/>
      <point x="266" y="438" type="line"/>
      <point x="266" y="119" type="line" smooth="yes"/>
      <point x="266" y="37"/>
      <point x="320" y="-10"/>
    </contour>
  </outline>
</glyph>
<glyph name="IJ" format="2">
  <advance width="600"/>
  <unicode hex="0132"/>
  <outline>
    <contour>
      <point x="231" y="75" type="curve"/>
      <point x="204" y="29" type="line"/>
      <point x="239" y="3"/>
      <point x="285" y="-11"/>
      <point x="334" y="-11" type="curve" smooth="yes"/>
      <point x="458" y="-11"/>
      <point x="538" y="62"/>
      <point x="538" y="205" type="curve" smooth="yes"/>
      <point x="538" y="700" type="line"/>
      <point x="486" y="700" type="line"/>
      <point x="486" y="199" type="line" smooth="yes"/>
      <point x="486" y="92"/>
      <point x="431" y="37"/>
      <point x="337" y="37" type="curve" smooth="yes"/>
      <point x="293" y="37"/>
      <point x="258" y="55"/>
    </contour>
    <contour>
      <point x="79" y="0" type="line"/>
      <point x="131" y="0" type="line"/>
      <point x="131" y="700" type="line"/>
      <point x="79" y="700" type="line"/>
    </contour>
  </outline>
</glyph>
<glyph name="lslash" format="2">
  <advance width="600"/>
  <unicode hex="0142"/>
  <guideline x="96" y="286" angle="90.0" identifier="dP8aFtIfYJ"/>
  <outline>
    <contour>
      <point x="411" y="-10" type="curve" smooth="yes"/>
      <point x="440" y="-10"/>
      <point x="468" y="-6"/>
      <point x="505" y="5" type="curve"/>
      <point x="505" y="50" type="line"/>
      <point x="463" y="38"/>
      <point x="438" y="35"/>
      <point x="411" y="35" type="curve" smooth="yes"/>
      <point x="350" y="35"/>
      <point x="316" y="64"/>
      <point x="316" y="121" type="curve" smooth="yes"/>
      <point x="316" y="324" type="line"/>
      <point x="508" y="440" type="line"/>
      <point x="508" y="489" type="line"/>
      <point x="316" y="373" type="line"/>
      <point x="316" y="727" type="line"/>
      <point x="85" y="727" type="line"/>
      <point x="85" y="684" type="line"/>
      <point x="266" y="684" type="line"/>
      <point x="266" y="346" type="line"/>
      <point x="106" y="249" type="line"/>
      <point x="106" y="200" type="line"/>
      <point x="266" y="297" type="line"/>
      <point x="266" y="119" type="line" smooth="yes"/>
      <point x="266" y="37"/>
      <point x="320" y="-10"/>
    </contour>
  </outline>
</glyph>
<glyph name="Eng" format="2">
  <advance width="600"/>
  <unicode hex="014A"/>
  <outline>
    <contour>
      <point x="397" y="-219" type="curve" smooth="yes"/>
      <point x="474" y="-219"/>
      <point x="516" y="-173"/>
      <point x="516" y="-87" type="curve" smooth="yes"/>
      <point x="516" y="700" type="line"/>
      <point x="467" y="700" type="line"/>
      <point x="467" y="86" type="line"/>
      <point x="152" y="700" type="line"/>
      <point x="84" y="700" type="line"/>
      <point x="84" y="0" type="line"/>
      <point x="133" y="0" type="line"/>
      <point x="133" y="633" type="line"/>
      <point x="467" y="-17" type="line"/>
      <point x="467" y="-78" type="line" smooth="yes"/>
      <point x="467" y="-146"/>
      <point x="444" y="-173"/>
      <point x="404" y="-173" type="curve" smooth="yes"/>
      <point x="370" y="-173"/>
      <point x="348" y="-169"/>
      <point x="318" y="-157" type="curve"/>
      <point x="318" y="-204" type="line"/>
      <point x="345" y="-214"/>
      <point x="370" y="-219"/>
    </contour>
  </outline>
</glyph>
<glyph name="eng" format="2">
  <advance width="600"/>
  <unicode hex="014B"/>
  <outline>
    <contour>
      <point x="371" y="-219" type="curve" smooth="yes"/>
      <point x="450" y="-219"/>
      <point x="494" y="-178"/>
      <point x="494" y="-103" type="curve" smooth="yes"/>
      <point x="494" y="308" type="line" smooth="yes"/>
      <point x="494" y="416"/>
      <point x="422" y="489"/>
      <point x="315" y="489" type="curve" smooth="yes"/>
      <point x="249" y="489"/>
      <point x="196" y="460"/>
      <point x="159" y="403" type="curve"/>
      <point x="159" y="481" type="line"/>
      <point x="109" y="481" type="line"/>
      <point x="109" y="0" type="line"/>
      <point x="159" y="0" type="line"/>
      <point x="159" y="360" type="line"/>
      <point x="187" y="413"/>
      <point x="239" y="445"/>
      <point x="301" y="445" type="curve" smooth="yes"/>
      <point x="388" y="445"/>
      <point x="444" y="387"/>
      <point x="444" y="293" type="curve" smooth="yes"/>
      <point x="444" y="-101" type="line" smooth="yes"/>
      <point x="444" y="-152"/>
      <point x="423" y="-173"/>
      <point x="368" y="-173" type="curve" smooth="yes"/>
      <point x="346" y="-173"/>
      <point x="331" y="-170"/>
      <point x="311" y="-164" type="curve"/>
      <point x="311" y="-212" type="line"/>
      <point x="339" y="-217"/>
      <point x="355" y="-219"/>
    </contour>
  </outline>
</glyph>
<glyph name="Scedilla" format="2">
  <advance width="600"/>
  <unicode hex="015E"/>
  <outline>
    <contour>
      <point x="297" y="-235" type="curve" smooth="yes"/>
      <point x="360" y="-235"/>
      <point x="403" y="-198"/>
      <point x="403" y="-147" type="curve" smooth="yes"/>
      <point x="403" y="-100"/>
      <point x="365" y="-70"/>
      <point x="307" y="-68" type="curve"/>
      <point x="320" y="-11" type="line"/>
      <point x="443" y="-8"/>
      <point x="538" y="73"/>
      <point x="538" y="184" type="curve" smooth="yes"/>
      <point x="538" y="456"/>
      <point x="140" y="316"/>
      <point x="140" y="535" type="curve" smooth="yes"/>
      <point x="140" y="613"/>
      <point x="205" y="663"/>
      <point x="296" y="663" type="curve" smooth="yes"/>
      <point x="368" y="663"/>
      <point x="440" y="636"/>
      <point x="504" y="588" type="curve"/>
      <point x="533" y="630" type="line"/>
      <point x="450" y="686"/>
      <point x="382" y="711"/>
      <point x="292" y="711" type="curve" smooth="yes"/>
      <point x="174" y="711"/>
      <point x="88" y="642"/>
      <point x="88" y="533" type="curve" smooth="yes"/>
      <point x="88" y="270"/>
      <point x="486" y="401"/>
      <point x="486" y="186" type="curve" smooth="yes"/>
      <point x="486" y="100"/>
      <point x="410" y="37"/>
      <point x="314" y="37" type="curve" smooth="yes"/>
      <point x="231" y="37"/>
      <point x="166" y="66"/>
      <point x="97" y="134" type="curve"/>
      <point x="64" y="96" type="line"/>
      <point x="132" y="31"/>
      <point x="202" y="-4"/>
      <point x="286" y="-10" type="curve"/>
      <point x="264" y="-96" type="line"/>
      <point x="289" y="-96" type="line" smooth="yes"/>
      <point x="337" y="-96"/>
      <point x="365" y="-115"/>
      <point x="365" y="-149" type="curve" smooth="yes"/>
      <point x="365" y="-183"/>
      <point x="339" y="-204"/>
      <point x="296" y="-204" type="curve" smooth="yes"/>
      <point x="266" y="-204"/>
      <point x="239" y="-194"/>
      <point x="216" y="-175" type="curve"/>
      <point x="194" y="-201" type="line"/>
      <point x="220" y="-224"/>
      <point x="256" y="-235"/>
    </contour>
  </outline>
</glyph>
<glyph name="Tcedilla" format="2">
  <advance width="600"/>
  <unicode hex="0162"/>
  <outline>
    <contour>
      <point x="274" y="0" type="line"/>
      <point x="284" y="0" type="line"/>
      <point x="259" y="-96" type="line"/>
      <point x="284" y="-96" type="line" smooth="yes"/>
      <point x="332" y="-96"/>
      <point x="360" y="-115"/>
      <point x="360" y="-149" type="curve" smooth="yes"/>
      <point x="360" y="-183"/>
      <point x="334" y="-204"/>
      <point x="291" y="-204" type="curve" smooth="yes"/>
      <point x="261" y="-204"/>
      <point x="234" y="-194"/>
      <point x="211" y="-175" type="curve"/>
      <point x="189" y="-201" type="line"/>
      <point x="215" y="-224"/>
      <point x="251" y="-235"/>
      <point x="292" y="-235" type="curve" smooth="yes"/>
      <point x="355" y="-235"/>
      <point x="398" y="-198"/>
      <point x="398" y="-147" type="curve" smooth="yes"/>
      <point x="398" y="-100"/>
      <point x="360" y="-70"/>
      <point x="302" y="-68" type="curve"/>
      <point x="317" y="0" type="line"/>
      <point x="326" y="0" type="line"/>
      <point x="326" y="653" type="line"/>
      <point x="566" y="653" type="line"/>
      <point x="566" y="700" type="line"/>
      <point x="34" y="700" type="line"/>
      <point x="34" y="653" type="line"/>
      <point x="274" y="653" type="line"/>
    </contour>
  </outline>
</glyph>
<glyph name="tcedilla" format="2">
  <advance width="600"/>
  <unicode hex="0163"/>
  <outline>
    <contour>
      <point x="375" y="-10" type="curve" smooth="yes"/>
      <point x="417" y="-10"/>
      <point x="457" y="-1"/>
      <point x="502" y="17" type="curve"/>
      <point x="502" y="65" type="line"/>
      <point x="453" y="45"/>
      <point x="408" y="36"/>
      <point x="368" y="36" type="curve" smooth="yes"/>
      <point x="306" y="36"/>
      <point x="269" y="62"/>
      <point x="269" y="122" type="curve" smooth="yes"/>
      <point x="269" y="438" type="line"/>
      <point x="502" y="438" type="line"/>
      <point x="502" y="481" type="line"/>
      <point x="269" y="481" type="line"/>
      <point x="269" y="625" type="line"/>
      <point x="219" y="612" type="line"/>
      <point x="219" y="481" type="line"/>
      <point x="48" y="481" type="line"/>
      <point x="48" y="438" type="line"/>
      <point x="219" y="438" type="line"/>
      <point x="219" y="116" type="line" smooth="yes"/>
      <point x="219" y="50"/>
      <point x="255" y="8"/>
      <point x="322" y="-5" type="curve"/>
      <point x="298" y="-96" type="line"/>
      <point x="323" y="-96" type="line" smooth="yes"/>
      <point x="371" y="-96"/>
      <point x="399" y="-115"/>
      <point x="399" y="-149" type="curve" smooth="yes"/>
      <point x="399" y="-183"/>
      <point x="373" y="-204"/>
      <point x="330" y="-204" type="curve" smooth="yes"/>
      <point x="300" y="-204"/>
      <point x="273" y="-194"/>
      <point x="250" y="-175" type="curve"/>
      <point x="228" y="-201" type="line"/>
      <point x="254" y="-224"/>
      <point x="290" y="-235"/>
      <point x="331" y="-235" type="curve" smooth="yes"/>
      <point x="394" y="-235"/>
      <point x="437" y="-198"/>
      <point x="437" y="-147" type="curve" smooth="yes"/>
      <point x="437" y="-100"/>
      <point x="399" y="-70"/>
      <point x="341" y="-68" type="curve"/>
      <point x="354" y="-9" type="line"/>
      <point x="361" y="-10"/>
      <point x="368" y="-10"/>
    </contour>
  </outline>
</glyph>
<glyph name="Tbar" format="2">
  <advance width="600"/>
  <unicode hex="0166"/>
  <outline>
    <contour>
      <point x="274" y="0" type="line"/>
      <point x="326" y="0" type="line"/>
      <point x="326" y="329" type="line"/>
      <point x="488" y="329" type="line"/>
      <point x="488" y="373" type="line"/>
      <point x="326" y="373" type="line"/>
      <point x="326" y="653" type="line"/>
      <point x="566" y="653" type="line"/>
      <point x="566" y="700" type="line"/>
      <point x="34" y="700" type="line"/>
      <point x="34" y="653" type="line"/>
      <point x="274" y="653" type="line"/>
      <point x="274" y="373" type="line"/>
      <point x="112" y="373" type="line"/>
      <point x="112" y="329" type="line"/>
      <point x="274" y="329" type="line"/>
    </contour>
  </outline>
</glyph>
<glyph name="tbar" format="2">
  <advance width="600"/>
  <unicode hex="0167"/>
  <guideline x="48" y="423" angle="270.0" identifier="20JFz57MC8"/>
  <guideline x="502" y="398" angle="270.0" identifier="xzU9qtgFwo"/>
  <outline>
    <contour>
      <point x="375" y="-10" type="curve" smooth="yes"/>
      <point x="417" y="-10"/>
      <point x="457" y="-1"/>
      <point x="502" y="17" type="curve"/>
      <point x="502" y="65" type="line"/>
      <point x="453" y="45"/>
      <point x="408" y="36"/>
      <point x="368" y="36" type="curve" smooth="yes"/>
      <point x="306" y="36"/>
      <point x="269" y="62"/>
      <point x="269" y="122" type="curve" smooth="yes"/>
      <point x="269" y="258" type="line"/>
      <point x="502" y="258" type="line"/>
      <point x="502" y="298" type="line"/>
      <point x="269" y="298" type="line"/>
      <point x="269" y="438" type="line"/>
      <point x="502" y="438" type="line"/>
      <point x="502" y="481" type="line"/>
      <point x="269" y="481" type="line"/>
      <point x="269" y="625" type="line"/>
      <point x="219" y="612" type="line"/>
      <point x="219" y="481" type="line"/>
      <point x="48" y="481" type="line"/>
      <point x="48" y="438" type="line"/>
      <point x="219" y="438" type="line"/>
      <point x="219" y="298" type="line"/>
      <point x="48" y="298" type="line"/>
      <point x="48" y="258" type="line"/>
      <point x="219" y="258" type="line"/>
      <point x="219" y="116" type="line" smooth="yes"/>
      <point x="219" y="34"/>
      <point x="274" y="-10"/>
    </contour>
  </outline>
</glyph>
<glyph name="caron" format="2">
  <advance width="600"/>
  <unicode hex="02C7"/>
  <outline>
    <contour>
      <point x="271" y="577" type="line"/>
      <point x="329" y="577" type="line"/>
      <point x="439" y="698" type="line"/>
      <point x="395" y="698" type="line"/>
      <point x="300" y="609" type="line"/>
      <point x="205" y="698" type="line"/>
      <point x="161" y="698" type="line"/>
    </contour>
  </outline>
</glyph>
<glyph name="bullet" format="2">
  <advance width="600"/>
  <unicode hex="2022"/>
  <outline>
    <contour>
      <point x="300" y="266" type="curve" smooth="yes"/>
      <point x="351" y="266"/>
      <point x="395" y="307"/>
      <point x="395" y="361" type="curve" smooth="yes"/>
      <point x="395" y="415"/>
      <point x="351" y="456"/>
      <point x="300" y="456" type="curve" smooth="yes"/>
      <point x="249" y="456"/>
      <point x="205" y="415"/>
      <point x="205" y="361" type="curve" smooth="yes"/>
      <point x="205" y="307"/>
      <point x="249" y="266"/>
    </contour>
  </outline>
</glyph>
<glyph name="ellipsis" format="2">
  <advance width="600"/>
  <unicode hex="2026"/>
  <guideline x="342" y="28" angle="90.0" identifier="l7XyiSVBK4"/>
  <outline>
    <contour>
      <point x="96" y="-9" type="curve" smooth="yes"/>
      <point x="131" y="-9"/>
      <point x="157" y="16"/>
      <point x="157" y="48" type="curve" smooth="yes"/>
      <point x="157" y="80"/>
      <point x="131" y="105"/>
      <point x="96" y="105" type="curve" smooth="yes"/>
      <point x="61" y="105"/>
      <point x="35" y="80"/>
      <point x="35" y="48" type="curve" smooth="yes"/>
      <point x="35" y="16"/>
      <point x="61" y="-9"/>
    </contour>
    <contour>
      <point x="300" y="-9" type="curve" smooth="yes"/>
      <point x="335" y="-9"/>
      <point x="361" y="16"/>
      <point x="361" y="48" type="curve" smooth="yes"/>
      <point x="361" y="80"/>
      <point x="335" y="105"/>
      <point x="300" y="105" type="curve" smooth="yes"/>
      <point x="265" y="105"/>
      <point x="239" y="80"/>
      <point x="239" y="48" type="curve" smooth="yes"/>
      <point x="239" y="16"/>
      <point x="265" y="-9"/>
    </contour>
    <contour>
      <point x="504" y="-9" type="curve" smooth="yes"/>
      <point x="539" y="-9"/>
      <point x="565" y="16"/>
      <point x="565" y="48" type="curve" smooth="yes"/>
      <point x="565" y="80"/>
      <point x="539" y="105"/>
      <point x="504" y="105" type="curve" smooth="yes"/>
      <point x="469" y="105"/>
      <point x="443" y="80"/>
      <point x="443" y="48" type="curve" smooth="yes"/>
      <point x="443" y="16"/>
      <point x="469" y="-9"/>
    </contour>
  </outline>
</glyph>
<glyph name="perthousand" format="2">
  <advance width="600"/>
  <unicode hex="2030"/>
  <outline>
    <contour>
      <point x="49" y="0" type="line"/>
      <point x="87" y="0" type="line"/>
      <point x="348" y="700" type="line"/>
      <point x="310" y="700" type="line"/>
    </contour>
    <contour>
      <point x="106" y="449" type="curve" smooth="yes"/>
      <point x="160" y="449"/>
      <point x="195" y="500"/>
      <point x="195" y="577" type="curve" smooth="yes"/>
      <point x="195" y="654"/>
      <point x="160" y="705"/>
      <point x="106" y="705" type="curve" smooth="yes"/>
      <point x="52" y="705"/>
      <point x="17" y="654"/>
      <point x="17" y="577" type="curve" smooth="yes"/>
      <point x="17" y="500"/>
      <point x="52" y="449"/>
    </contour>
    <contour>
      <point x="106" y="484" type="curve" smooth="yes"/>
      <point x="75" y="484"/>
      <point x="57" y="519"/>
      <point x="57" y="577" type="curve" smooth="yes"/>
      <point x="57" y="635"/>
      <point x="75" y="670"/>
      <point x="106" y="670" type="curve" smooth="yes"/>
      <point x="137" y="670"/>
      <point x="155" y="635"/>
      <point x="155" y="577" type="curve" smooth="yes"/>
      <point x="155" y="519"/>
      <point x="137" y="484"/>
    </contour>
    <contour>
      <point x="291" y="30" type="curve" smooth="yes"/>
      <point x="260" y="30"/>
      <point x="242" y="65"/>
      <point x="242" y="123" type="curve" smooth="yes"/>
      <point x="242" y="181"/>
      <point x="260" y="216"/>
      <point x="291" y="216" type="curve" smooth="yes"/>
      <point x="322" y="216"/>
      <point x="340" y="181"/>
      <point x="340" y="123" type="curve" smooth="yes"/>
      <point x="340" y="65"/>
      <point x="322" y="30"/>
    </contour>
    <contour>
      <point x="291" y="-5" type="curve" smooth="yes"/>
      <point x="345" y="-5"/>
      <point x="380" y="46"/>
      <point x="380" y="123" type="curve" smooth="yes"/>
      <point x="380" y="200"/>
      <point x="345" y="251"/>
      <point x="291" y="251" type="curve" smooth="yes"/>
      <point x="237" y="251"/>
      <point x="202" y="200"/>
      <point x="202" y="123" type="curve" smooth="yes"/>
      <point x="202" y="46"/>
      <point x="237" y="-5"/>
    </contour>
    <contour>
      <point x="494" y="30" type="curve" smooth="yes"/>
      <point x="463" y="30"/>
      <point x="445" y="65"/>
      <point x="445" y="123" type="curve" smooth="yes"/>
      <point x="445" y="181"/>
      <point x="463" y="216"/>
      <point x="494" y="216" type="curve" smooth="yes"/>
      <point x="525" y="216"/>
      <point x="543" y="181"/>
      <point x="543" y="123" type="curve" smooth="yes"/>
      <point x="543" y="65"/>
      <point x="525" y="30"/>
    </contour>
    <contour>
      <point x="494" y="-5" type="curve" smooth="yes"/>
      <point x="548" y="-5"/>
      <point x="583" y="46"/>
      <point x="583" y="123" type="curve" smooth="yes"/>
      <point x="583" y="200"/>
      <point x="548" y="251"/>
      <point x="494" y="251" type="curve" smooth="yes"/>
      <point x="440" y="251"/>
      <point x="405" y="200"/>
      <point x="405" y="123" type="curve" smooth="yes"/>
      <point x="405" y="46"/>
      <point x="440" y="-5"/>
    </contour>
  </outline>
</glyph>
<glyph name="uni2079" format="2">
  <advance width="600"/>
  <unicode hex="2079"/>
  <outline>
    <contour>
      <point x="292" y="703" type="curve" smooth="yes"/>
      <point x="220" y="703"/>
      <point x="168" y="654"/>
      <point x="168" y="588" type="curve" smooth="yes"/>
      <point x="168" y="526"/>
      <point x="217" y="482"/>
      <point x="286" y="482" type="curve" smooth="yes"/>
      <point x="329" y="482"/>
      <point x="370" y="501"/>
      <point x="395" y="530" type="curve"/>
      <point x="395" y="438"/>
      <point x="348" y="378"/>
      <point x="275" y="378" type="curve" smooth="yes"/>
      <point x="248" y="378"/>
      <point x="224" y="386"/>
      <point x="200" y="396" type="curve"/>
      <point x="187" y="360" type="line"/>
      <point x="214" y="348"/>
      <point x="239" y="343"/>
      <point x="269" y="343" type="curve" smooth="yes"/>
      <point x="369" y="343"/>
      <point x="435" y="419"/>
      <point x="435" y="535" type="curve" smooth="yes"/>
      <point x="435" y="634"/>
      <point x="376" y="703"/>
    </contour>
    <contour>
      <point x="299" y="514" type="curve" smooth="yes"/>
      <point x="245" y="514"/>
      <point x="208" y="545"/>
      <point x="208" y="589" type="curve" smooth="yes"/>
      <point x="208" y="634"/>
      <point x="242" y="668"/>
      <point x="289" y="668" type="curve" smooth="yes"/>
      <point x="344" y="668"/>
      <point x="385" y="626"/>
      <point x="393" y="562" type="curve"/>
      <point x="369" y="531"/>
      <point x="334" y="514"/>
    </contour>
  </outline>
</glyph>
<glyph name="uni2080" format="2">
  <advance width="600"/>
  <unicode hex="2080"/>
  <outline>
    <contour>
      <point x="300" y="-5" type="curve" smooth="yes"/>
      <point x="385" y="-5"/>
      <point x="444" y="68"/>
      <point x="444" y="175" type="curve" smooth="yes"/>
      <point x="444" y="282"/>
      <point x="385" y="355"/>
      <point x="300" y="355" type="curve" smooth="yes"/>
      <point x="215" y="355"/>
      <point x="156" y="282"/>
      <point x="156" y="175" type="curve" smooth="yes"/>
      <point x="156" y="68"/>
      <point x="215" y="-5"/>
    </contour>
    <contour>
      <point x="300" y="30" type="curve" smooth="yes"/>
      <point x="237" y="30"/>
      <point x="196" y="86"/>
      <point x="196" y="175" type="curve" smooth="yes"/>
      <point x="196" y="264"/>
      <point x="237" y="320"/>
      <point x="300" y="320" type="curve" smooth="yes"/>
      <point x="363" y="320"/>
      <point x="404" y="264"/>
      <point x="404" y="175" type="curve" smooth="yes"/>
      <point x="404" y="86"/>
      <point x="363" y="30"/>
    </contour>
  </outline>
</glyph>
<glyph name="uni2084" format="2">
  <advance width="600"/>
  <unicode hex="2084"/>
  <outline>
    <contour>
      <point x="347" y="0" type="line"/>
      <point x="387" y="0" type="line"/>
      <point x="387" y="92" type="line"/>
      <point x="429" y="92" type="line"/>
      <point x="429" y="126" type="line"/>
      <point x="387" y="126" type="line"/>
      <point x="387" y="350" type="line"/>
      <point x="344" y="350" type="line"/>
      <point x="147" y="123" type="line"/>
      <point x="147" y="92" type="line"/>
      <point x="347" y="92" type="line"/>
    </contour>
    <contour>
      <point x="191" y="126" type="line"/>
      <point x="347" y="305" type="line"/>
      <point x="347" y="126" type="line"/>
    </contour>
  </outline>
</glyph>
<glyph name="uni2086" format="2">
  <advance width="600"/>
  <unicode hex="2086"/>
  <outline>
    <contour>
      <point x="310" y="-5" type="curve" smooth="yes"/>
      <point x="382" y="-5"/>
      <point x="434" y="44"/>
      <point x="434" y="110" type="curve" smooth="yes"/>
      <point x="434" y="172"/>
      <point x="385" y="216"/>
      <point x="316" y="216" type="curve" smooth="yes"/>
      <point x="273" y="216"/>
      <point x="232" y="197"/>
      <point x="207" y="168" type="curve"/>
      <point x="207" y="260"/>
      <point x="254" y="320"/>
      <point x="327" y="320" type="curve" smooth="yes"/>
      <point x="354" y="320"/>
      <point x="378" y="312"/>
      <point x="402" y="302" type="curve"/>
      <point x="415" y="338" type="line"/>
      <point x="388" y="350"/>
      <point x="363" y="355"/>
      <point x="333" y="355" type="curve" smooth="yes"/>
      <point x="233" y="355"/>
      <point x="167" y="279"/>
      <point x="167" y="163" type="curve" smooth="yes"/>
      <point x="167" y="64"/>
      <point x="226" y="-5"/>
    </contour>
    <contour>
      <point x="303" y="184" type="curve" smooth="yes"/>
      <point x="357" y="184"/>
      <point x="394" y="153"/>
      <point x="394" y="109" type="curve" smooth="yes"/>
      <point x="394" y="64"/>
      <point x="360" y="30"/>
      <point x="313" y="30" type="curve" smooth="yes"/>
      <point x="258" y="30"/>
      <point x="217" y="72"/>
      <point x="209" y="136" type="curve"/>
      <point x="233" y="167"/>
      <point x="268" y="184"/>
    </contour>
  </outline>
</glyph>
<glyph name="uni2089" format="2">
  <advance width="600"/>
  <unicode hex="2089"/>
  <outline>
    <contour>
      <point x="307" y="355" type="curve" smooth="yes"/>
      <point x="235" y="355"/>
      <point x="183" y="306"/>
      <point x="183" y="240" type="curve" smooth="yes"/>
      <point x="183" y="178"/>
      <point x="232" y="134"/>
      <point x="301" y="134" type="curve" smooth="yes"/>
      <point x="344" y="134"/>
      <point x="385" y="153"/>
      <point x="410" y="182" type="curve"/>
      <point x="410" y="90"/>
      <point x="363" y="30"/>
      <point x="290" y="30" type="curve" smooth="yes"/>
      <point x="263" y="30"/>
      <point x="239" y="38"/>
      <point x="215" y="48" type="curve"/>
      <point x="202" y="12" type="line"/>
      <point x="229" y="0"/>
      <point x="254" y="-5"/>
      <point x="284" y="-5" type="curve" smooth="yes"/>
      <point x="384" y="-5"/>
      <point x="450" y="71"/>
      <point x="450" y="187" type="curve" smooth="yes"/>
      <point x="450" y="286"/>
      <point x="391" y="355"/>
    </contour>
    <contour>
      <point x="314" y="166" type="curve" smooth="yes"/>
      <point x="260" y="166"/>
      <point x="223" y="197"/>
      <point x="223" y="241" type="curve" smooth="yes"/>
      <point x="223" y="286"/>
      <point x="257" y="320"/>
      <point x="304" y="320" type="curve" smooth="yes"/>
      <point x="359" y="320"/>
      <point x="400" y="278"/>
      <point x="408" y="214" type="curve"/>
      <point x="384" y="183"/>
      <point x="349" y="166"/>
    </contour>
  </outline>
</glyph>
<glyph name="Euro" format="2">
  <advance width="600"/>
  <unicode hex="20AC"/>
  <guideline x="710" y="246" angle="270.0" identifier="rNUMiTvak7"/>
  <outline>
    <contour>
      <point x="361" y="-11" type="curve" smooth="yes"/>
      <point x="458" y="-11"/>
      <point x="537" y="49"/>
      <point x="580" y="152" type="curve"/>
      <point x="535" y="175" type="line"/>
      <point x="502" y="87"/>
      <point x="440" y="35"/>
      <point x="361" y="35" type="curve" smooth="yes"/>
      <point x="259" y="35"/>
      <point x="186" y="121"/>
      <point x="165" y="262" type="curve"/>
      <point x="371" y="262" type="line"/>
      <point x="386" y="306" type="line"/>
      <point x="160" y="306" type="line"/>
      <point x="159" y="320"/>
      <point x="159" y="335"/>
      <point x="159" y="350" type="curve" smooth="yes"/>
      <point x="159" y="366"/>
      <point x="160" y="382"/>
      <point x="161" y="397" type="curve"/>
      <point x="419" y="397" type="line"/>
      <point x="436" y="441" type="line"/>
      <point x="166" y="441" type="line"/>
      <point x="187" y="580"/>
      <point x="260" y="665"/>
      <point x="361" y="665" type="curve" smooth="yes"/>
      <point x="440" y="665"/>
      <point x="502" y="614"/>
      <point x="535" y="526" type="curve"/>
      <point x="580" y="548" type="line"/>
      <point x="537" y="651"/>
      <point x="459" y="711"/>
      <point x="361" y="711" type="curve" smooth="yes"/>
      <point x="233" y="711"/>
      <point x="138" y="609"/>
      <point x="113" y="441" type="curve"/>
      <point x="30" y="441" type="line"/>
      <point x="30" y="397" type="line"/>
      <point x="109" y="397" type="line"/>
      <point x="108" y="382"/>
      <point x="107" y="366"/>
      <point x="107" y="350" type="curve" smooth="yes"/>
      <point x="107" y="335"/>
      <point x="107" y="320"/>
      <point x="108" y="306" type="curve"/>
      <point x="30" y="306" type="line"/>
      <point x="30" y="262" type="line"/>
      <point x="113" y="262" type="line"/>
      <point x="137" y="92"/>
      <point x="232" y="-11"/>
    </contour>
  </outline>
</glyph>
<glyph name="trademark" format="2">
  <advance width="600"/>
  <unicode hex="2122"/>
  <outline>
    <contour>
      <point x="292" y="424" type="line"/>
      <point x="324" y="424" type="line"/>
      <point x="324" y="655" type="line"/>
      <point x="424" y="443" type="line"/>
      <point x="522" y="655" type="line"/>
      <point x="522" y="424" type="line"/>
      <point x="554" y="424" type="line"/>
      <point x="554" y="700" type="line"/>
      <point x="512" y="700" type="line"/>
      <point x="424" y="507" type="line"/>
      <point x="334" y="700" type="line"/>
      <point x="292" y="700" type="line"/>
    </contour>
    <contour>
      <point x="132" y="424" type="line"/>
      <point x="165" y="424" type="line"/>
      <point x="165" y="670" type="line"/>
      <point x="250" y="670" type="line"/>
      <point x="250" y="700" type="line"/>
      <point x="47" y="700" type="line"/>
      <point x="47" y="670" type="line"/>
      <point x="132" y="670" type="line"/>
    </contour>
  </outline>
</glyph>
<glyph name="uni2191" format="2">
  <advance width="600"/>
  <unicode hex="2191"/>
  <outline>
    <contour>
      <point x="277" y="0" type="line"/>
      <point x="323" y="0" type="line"/>
      <point x="323" y="651" type="line"/>
      <point x="496" y="418" type="line"/>
      <point x="530" y="442" type="line"/>
      <point x="301" y="750" type="line"/>
      <point x="70" y="442" type="line"/>
      <point x="106" y="416" type="line"/>
      <point x="277" y="644" type="line"/>
    </contour>
  </outline>
</glyph>
<glyph name="uni2215" format="2">
  <advance width="600"/>
  <unicode hex="2215"/>
  <outline>
    <contour>
      <point x="43" y="0" type="line"/>
      <point x="88" y="0" type="line"/>
      <point x="478" y="700" type="line"/>
      <point x="433" y="700" type="line"/>
    </contour>
  </outline>
</glyph>
<glyph name="fi" format="2">
  <advance width="600"/>
  <unicode hex="FB01"/>
  <outline>
    <contour>
      <point x="142" y="0" type="line"/>
      <point x="192" y="0" type="line"/>
      <point x="192" y="438" type="line"/>
      <point x="341" y="438" type="line"/>
      <point x="341" y="481" type="line"/>
      <point x="192" y="481" type="line"/>
      <point x="192" y="597" type="line" smooth="yes"/>
      <point x="192" y="663"/>
      <point x="218" y="691"/>
      <point x="275" y="691" type="curve" smooth="yes"/>
      <point x="296" y="691"/>
      <point x="311" y="688"/>
      <point x="334" y="680" type="curve"/>
      <point x="334" y="728" type="line"/>
      <point x="315" y="735"/>
      <point x="297" y="737"/>
      <point x="273" y="737" type="curve" smooth="yes"/>
      <point x="188" y="737"/>
      <point x="142" y="686"/>
      <point x="142" y="598" type="curve" smooth="yes"/>
      <point x="142" y="481" type="line"/>
      <point x="27" y="481" type="line"/>
      <point x="27" y="438" type="line"/>
      <point x="142" y="438" type="line"/>
    </contour>
    <contour>
      <point x="473" y="602" type="curve" smooth="yes"/>
      <point x="503" y="602"/>
      <point x="526" y="627"/>
      <point x="526" y="657" type="curve" smooth="yes"/>
      <point x="526" y="687"/>
      <point x="503" y="712"/>
      <point x="473" y="712" type="curve" smooth="yes"/>
      <point x="443" y="712"/>
      <point x="420" y="687"/>
      <point x="420" y="657" type="curve" smooth="yes"/>
      <point x="420" y="627"/>
      <point x="443" y="602"/>
    </contour>
    <contour>
      <point x="448" y="0" type="line"/>
      <point x="498" y="0" type="line"/>
      <point x="498" y="481" type="line"/>
      <point x="448" y="481" type="line"/>
    </contour>
  </outline>
</glyph>
<glyph name="acutecomb" format="2">
  <anchor x="300" y="481" name="_top"/>
  <outline>
    <contour>
      <point x="272" y="579" type="line"/>
      <point x="320" y="579" type="line"/>
      <point x="452" y="695" type="line"/>
      <point x="377" y="695" type="line"/>
    </contour>
  </outline>
</glyph>
<glyph name="gravecomb" format="2">
  <anchor x="300" y="481" name="_top"/>
  <outline>
    <contour>
      <point x="284" y="579" type="line"/>
      <point x="334" y="579" type="line"/>
      <point x="229" y="695" type="line"/>
      <point x="152" y="695" type="line"/>
    </contour>
  </outline>
</glyph>
<glyph name="uni0304" format="2">
  <anchor x="300" y="481" name="_top"/>
  <outline>
    <contour>
      <point x="170" y="632" type="line"/>
      <point x="430" y="632" type="line"/>
      <point x="430" y="672" type="line"/>
      <point x="170" y="672" type="line"/>
    </contour>
  </outline>
</glyph>
<glyph name="uni0306" format="2">
  <anchor x="300" y="481" name="_top"/>
  <outline>
    <contour>
      <point x="300" y="573" type="curve" smooth="yes"/>
      <point x="378" y="573"/>
      <point x="433" y="620"/>
      <point x="450" y="695" type="curve"/>
      <point x="410" y="704" type="line"/>
      <point x="396" y="641"/>
      <point x="357" y="609"/>
      <point x="300" y="609" type="curve" smooth="yes"/>
      <point x="243" y="609"/>
      <point x="204" y="641"/>
      <point x="190" y="704" type="curve"/>
      <point x="150" y="695" type="line"/>
      <point x="167" y="620"/>
      <point x="222" y="573"/>
    </contour>
  </outline>
</glyph>
